<svg width="512" height="116" viewBox="0 0 512 116" fill="none" xmlns="http://www.w3.org/2000/svg">
<g clip-path="url(#clip0_7_97)">
<path fill-rule="evenodd" clip-rule="evenodd" d="M489.718 8.646L511.138 8.764C511.138 8.764 471.314 62.728 468.062 67.126C467.006 68.55 465.402 70.086 464.588 71.99C462.531 76.776 460.419 87.275 460.419 87.275L440.82 87.373C440.82 87.373 443.87 76.429 443.744 70.6C443.634 65.508 441.034 60.422 439.576 55.315C438.102 50.145 436.101 40.029 436.101 40.029H456.251L459.03 51.146L489.718 8.646Z" fill="#1A1918"/>
<path fill-rule="evenodd" clip-rule="evenodd" d="M449.157 20.027C453.11 22.41 455.536 35.556 455.536 35.556C455.536 35.556 434.852 35.861 423.596 35.861H413.869L402.057 87.275H383.993C383.993 87.275 395.235 31.401 397.889 21.271C398.749 17.991 403.781 18.554 412.278 18.554H425.847C434.609 18.554 444.85 17.435 449.157 20.027ZM365.06 45.067C365.06 45.067 365.623 41.767 363.15 37.945C361.037 34.687 359.086 33.929 353.527 33.755C337.832 33.262 338.137 44.893 338.137 44.893L365.06 45.067ZM382.082 31.747C384.382 40.044 379.998 59.539 379.998 59.539C379.998 59.539 357.104 59.157 344.564 59.539C340.665 59.658 335.998 59.115 334.837 60.929C333.204 63.471 335.434 67.384 337.324 69.037C339.499 70.94 343.736 71.157 345.259 71.35C355.437 72.643 376.739 71.684 376.739 71.684L373.049 88.024C373.049 88.024 342.946 89.534 327.889 85.94C324.916 85.232 322.129 83.801 320.246 81.772C319.732 81.217 319.286 80.46 318.8 79.806C318.412 79.284 317.28 77.569 316.772 76.213C313.333 67.049 317.175 49.493 320.941 40.085C321.378 38.995 321.927 37.612 322.505 36.437C323.227 34.972 323.838 33.318 324.415 32.442C324.803 31.838 325.284 31.449 325.687 30.879C326.152 30.205 326.693 29.552 327.194 28.969C328.584 27.357 330.161 26.217 332.058 24.801C338.331 20.103 349.684 16.456 363.323 17.852C368.458 18.38 376.213 20.214 379.998 25.495C381.012 26.905 381.513 29.704 382.082 31.747ZM299.229 18.49L316.745 18.387C316.745 18.387 306.983 64.694 302.008 87.275H281.858C267.776 87.275 255.235 89.019 249.899 78.937C244.723 69.148 249.663 53.05 251.983 42.113C253.623 34.373 257.077 18.553 257.077 18.553L275.225 18.387C275.225 18.387 270.097 43.017 267.963 55.315C267.199 59.72 265.623 63.868 267.269 67.125C268.832 70.225 271.021 70.447 277.69 70.6C279.803 70.65 286.723 70.6 286.723 70.6L299.229 18.49ZM217.244 51.84C219.078 45.324 221.753 38.258 221.413 32.386C221.045 26.106 215.779 20.388 212.381 19.186C202.147 15.573 192.566 20.624 188.758 24.744C183.832 30.08 182.164 36.313 180.42 44.894C179.122 51.264 178.058 57.989 180.42 62.957C184.602 71.74 197.644 69.822 211.686 69.906C213.77 64.32 215.493 58.046 217.244 51.84ZM241.562 26.134C243.562 40.682 235.886 56.74 230.598 70.704C235.99 71.191 240.715 70.629 241.055 71.031C241.409 71.552 237.441 87.699 236.058 87.741C231.779 87.852 217.599 87.97 211.686 87.97C192.391 87.97 174.341 89.227 165.136 79.633C161.398 75.735 158.813 69.05 158.187 64.347C157.145 56.496 158.451 47.852 160.272 40.725C161.919 34.29 164.03 28.218 167.22 22.659C175.328 8.50699 189.432 -1.99801 213.075 0.426993C217.661 0.898993 224.247 2.90699 228.361 5.28999C228.645 5.45699 229.64 6.24899 229.868 6.38799C235.427 9.92499 240.492 18.366 241.562 26.134ZM156.193 18.574C155.026 23.889 153.859 29.914 152.629 35.166H133.175C134.682 29.344 135.836 23.556 137.344 18.491C143.569 18.491 149.357 18.574 156.194 18.574M132.48 40.03H151.24C148.787 53.606 143.93 75.505 140.123 90.749C137.74 100.289 136.149 107.25 129.701 112.287C129.124 112.739 128.791 112.524 128.311 112.982C127.123 114.115 121.627 115.429 118.585 115.761C113.638 116.297 108.045 115.831 101.965 115.706C103.556 109.891 105.356 102.908 106.774 97.696C121.594 99.49 121.969 85.482 124.838 71.99C126.498 64.194 131.529 43.156 132.48 40.03Z" fill="#1A1918"/>
<path fill-rule="evenodd" clip-rule="evenodd" d="M88.708 75.465L88.306 76.506C81.456 89.846 69.317 98.031 52.003 98.392C43.909 98.558 36.197 96.482 31.159 94.223C20.287 89.34 11.142 80.28 6.14798 70.601C-1.01602 56.726 -2.30802 37.424 12.588 23.008C12.818 23.008 10.781 26.134 11.011 26.134L10.601 27.468C-0.133023 61.075 32.938 89.874 65.086 86.58C72.812 85.789 82.664 81.558 88.708 75.465Z" fill="#21609B"/>
<path fill-rule="evenodd" clip-rule="evenodd" d="M69.254 61.568C77.342 61.624 85.79 57.844 90.793 52.536C86.416 63.646 73.743 70.788 56.749 68.516C42.519 66.612 28.964 52.293 27.568 37.946C26.547 27.503 30.186 21.271 36.183 13.712C34.099 17.665 33.32 20.715 33.126 22.66C30.848 45.248 51.17 61.45 69.254 61.568Z" fill="#21609B"/>
<path fill-rule="evenodd" clip-rule="evenodd" d="M89.98 33.513C88.723 36.397 81.484 41.843 78.287 42.523C65.628 45.22 57.5209 39.217 53.2739 32.387C52.6429 31.366 51.4759 28.58 51.2669 27.871C49.6199 22.271 50.3769 13.801 55.2899 9.41699C53.8099 13.587 53.5939 18.428 54.3729 21.576C54.8449 23.48 56.2829 26.802 57.7219 28.892C60.3399 32.7 61.9999 33.625 65.3639 35.646C66.8789 36.556 68.504 37.286 69.2059 37.487C72.3949 38.425 79.127 40.899 89.98 33.513Z" fill="#21609B"/>
</g>
<defs>
<clipPath id="clip0_7_97">
<rect width="512" height="116" fill="white"/>
</clipPath>
</defs>
</svg>
