<svg width="197" height="224" viewBox="0 0 197 224" fill="none" xmlns="http://www.w3.org/2000/svg">
<g clip-path="url(#clip0_7_50)">
<path d="M1.58062 167.952C2.5964 169.758 4.06389 171.114 5.87075 172.13L92.7985 222.27C96.4115 224.415 100.814 224.415 104.314 222.27L191.242 172.13C194.855 170.098 197 166.257 197 162.079V61.7994C197 57.6211 194.855 53.7816 191.242 51.7494L104.314 1.6088C100.702 -0.537285 96.2984 -0.537285 92.7985 1.6088L5.87152 51.7494C2.14468 53.7816 0 57.6211 0 61.7994V162.191C0 164.225 0.451715 166.145 1.58062 167.952Z" fill="#009639"/>
<path d="M70.6714 150.222C70.6776 151.692 70.3928 153.148 69.8333 154.507C69.2738 155.867 68.4508 157.102 67.4117 158.141C66.3726 159.18 65.138 160.004 63.7792 160.563C62.4204 161.123 60.9642 161.408 59.4947 161.402C58.0253 161.408 56.5692 161.123 55.2105 160.563C53.8518 160.003 52.6173 159.18 51.5783 158.141C50.5393 157.101 49.7163 155.866 49.1569 154.507C48.5974 153.148 48.3126 151.691 48.3188 150.222V73.5444C48.3188 67.5587 53.6247 62.7031 60.9622 62.7031C66.2689 62.7031 72.4783 64.8484 76.2036 69.4785L79.5895 73.5444L126.329 129.443V73.7699C126.322 72.3 126.607 70.8434 127.167 69.4842C127.726 68.1249 128.549 66.89 129.588 65.8506C130.627 64.8112 131.862 63.9879 133.221 63.4283C134.58 62.8686 136.036 62.5837 137.505 62.5899C138.975 62.5838 140.431 62.8688 141.789 63.4285C143.148 63.9882 144.383 64.8115 145.422 65.8509C146.461 66.8903 147.284 68.1252 147.843 69.4843C148.402 70.8435 148.687 72.3 148.681 73.7699V150.448C148.681 156.433 143.375 161.288 136.038 161.288C130.731 161.288 124.522 159.143 120.796 154.513L70.6714 94.6612V150.222Z" fill="white"/>
</g>
<defs>
<clipPath id="clip0_7_50">
<rect width="197" height="224" fill="white"/>
</clipPath>
</defs>
</svg>
