<svg width="201" height="283" viewBox="0 0 201 283" fill="none" xmlns="http://www.w3.org/2000/svg">
<g clip-path="url(#clip0_7_18)">
<path d="M200.651 55.4758L182.403 259.581L100.377 282.285L18.5783 259.612L0.349365 55.4758H200.651Z" fill="#E44D26"/>
<path d="M100.5 264.93L166.781 246.584L182.374 72.1666H100.5V264.93Z" fill="#F16529"/>
<path d="M65.0266 122.24H100.5V97.2039H37.6223L38.2222 103.921L44.3856 172.915H100.5V147.878H67.3185L65.0266 122.24ZM70.6782 185.433H45.5061L49.0189 224.744L100.385 238.981L100.5 238.949V212.901L100.39 212.93L72.4636 205.401L70.6782 185.433Z" fill="#EBEBEB"/>
<path d="M18.9851 0H31.7282V12.5704H43.3854V0H56.1293V38.0662H43.3862V25.3195H31.729V38.0662H18.9859L18.9851 0ZM72.8861 12.6237H61.6693V0H96.8553V12.6237H85.6315V38.0662H72.8884V12.6237H72.8861ZM102.439 0H115.727L123.9 13.3755L132.066 0H145.358V38.0662H132.667V19.1985L123.9 32.7331H123.68L114.908 19.1985V38.0662H102.439V0ZM151.7 0H164.447V25.4841H182.367V38.0662H151.699L151.7 0Z" fill="black"/>
<path d="M100.414 172.915H131.291L128.38 205.385L100.413 212.922V238.969L151.819 224.744L152.196 220.514L158.09 154.601L158.701 147.878H100.414V172.915ZM100.414 122.179V122.24H160.983L161.485 116.613L162.629 103.921L163.228 97.2039H100.414V122.179Z" fill="white"/>
</g>
<defs>
<clipPath id="clip0_7_18">
<rect width="201" height="283" fill="white"/>
</clipPath>
</defs>
</svg>
