<svg width="198" height="278" viewBox="0 0 198 278" fill="none" xmlns="http://www.w3.org/2000/svg">
<g clip-path="url(#clip0_7_60)">
<path d="M97.3627 277.647C74.3003 276.662 58.2654 273.599 45.4689 267.736C43.601 266.881 43.881 267.454 41.867 260.374C38.3579 248.044 35.6911 236.871 32.834 222.536C31.3861 215.269 30.7078 212.231 27.3635 198.029C21.3616 172.546 19.0823 160.829 17.7705 148.72C17.4387 145.653 18.0366 141.46 18.9763 140.266C19.5324 139.561 19.5432 137.758 18.9926 137.615C18.6716 137.531 18.5919 137.259 18.4744 135.851C18.3769 134.682 18.2245 134.046 17.9639 133.714C17.711 133.394 17.5911 132.921 17.5911 132.247C17.5911 131.7 17.5021 131.197 17.3931 131.13C17.274 131.057 17.1951 129.716 17.1951 127.771C17.1951 125.825 17.1162 124.484 16.9971 124.41C16.8888 124.343 16.7991 124.466 16.7991 124.684C16.7991 127.12 15.0457 122.683 14.0232 117.66C11.4005 104.772 7.09555 91.9632 8.08555 99.9951C8.43359 102.821 9.07555 105.598 10.9194 112.256C13.085 120.077 14.072 125.616 13.6311 127.478C13.0015 130.14 8.93478 114.155 6.59126 99.8051C5.99572 96.1641 5.10317 90.6944 4.60585 87.6503C3.49597 80.8501 2.46343 75.7427 1.05268 70.0745C-0.359618 64.4018 -0.3194 63.4813 1.43553 61.2504C5.0529 56.6502 15.6683 53.0748 16.8153 56.0688C17.6019 58.1213 15.2839 59.5438 8.98041 60.8751C3.51685 62.0288 3.0118 62.8543 5.97716 65.7787C8.94251 68.7023 26.1414 71.3155 46.4914 71.9341C82.532 73.0306 105.381 73.3186 111.813 72.7588C113.391 72.6221 115.636 72.4576 116.801 72.3943C118.918 72.2785 118.918 72.2785 118.822 71.7634C118.749 71.3727 118.918 71.0066 119.517 70.2591C120.009 69.6415 120.491 69.0154 120.961 68.3811C122.182 66.7177 124.233 66.0829 125.083 67.1069C126.148 68.3865 125.207 71.3495 123.45 72.2576C122.638 72.6762 122.871 72.8051 124.745 72.9735C125.634 73.0538 126.872 73.1735 127.496 73.2391C129.382 73.4376 130.82 72.7572 130.028 72.0414C128.282 70.4637 131.567 67.2814 136.655 65.6219C137.417 65.374 138.125 65.0922 138.229 64.9964C138.332 64.9022 138.557 64.8242 138.73 64.8242C139.38 64.8242 141.236 63.3871 143.301 61.2874C144.477 60.092 145.796 58.8881 146.234 58.6117C146.672 58.336 147.126 57.9314 147.243 57.712C147.599 57.0479 146.906 57.2271 145.365 58.197C144.603 58.6758 143.534 59.3399 142.989 59.6719C141.859 60.3623 139.344 62.0272 136.926 63.6875C136.014 64.3122 135.046 64.974 134.775 65.1578C134.502 65.3424 134.118 65.6289 133.92 65.7933C133.483 66.1601 131.451 66.2482 130.32 65.9493C127.385 65.174 127.174 62.601 129.68 58.1329C130.777 56.1769 133.799 52.1752 134.181 52.1752C134.275 52.1752 134.604 51.8045 134.91 51.3505C135.465 50.5288 135.816 50.2632 137.582 49.3334C138.852 48.6639 139.595 48.5921 139.797 49.1164C139.916 49.4276 139.026 51.3837 138.023 53.0123C135.921 56.4263 135.738 56.773 135.935 56.9699C136.215 57.2495 138.355 55.9676 138.672 55.3297C138.805 55.0625 139.161 54.3119 139.462 53.6633C141.504 49.2701 146.39 48.8377 149.396 52.7829C150.19 53.8262 150.411 53.9444 150.415 53.3281C150.429 51.3991 153.119 49.8168 156.4 49.8068C157.76 49.8029 157.849 49.5805 156.671 49.1319C155.062 48.518 154.97 48.2106 156.031 46.9998C157.502 45.3202 156.804 44.9935 154.008 46.0538C151.311 47.077 148.69 47.6315 146.897 47.5565C145.946 47.5172 144.953 47.5643 144.692 47.6623C144.43 47.7604 143.732 47.8817 143.14 47.9318C142.548 47.982 141.992 48.0678 141.903 48.1218C141.815 48.1759 141.311 48.162 140.783 48.0902C137.845 47.6894 138.117 45.1464 141.797 38.6382C142.326 37.6969 142.829 36.741 143.304 35.7717C143.641 35.0651 145.013 32.2635 146.351 29.546C147.691 26.8286 149.154 23.8053 149.604 22.8269C150.053 21.8485 150.642 20.6261 150.912 20.1087C151.182 19.5928 151.402 19.0816 151.402 18.972C151.402 18.8623 151.63 18.3071 151.909 17.7364C153.708 14.0568 156.578 4.97158 156.228 4.06267C156.158 3.87734 156.217 3.75533 156.377 3.75533C156.524 3.75533 157.09 3.4588 157.635 3.09585C158.141 2.75929 158.651 2.42978 159.167 2.10741C159.608 1.83558 159.685 1.67573 159.593 1.21703C159.083 -1.33207 163.797 0.297318 169.664 4.69744C178.291 11.1687 185.951 22.1056 192.352 37.0922C198.039 50.4115 199.533 73.0005 195.844 89.9237C193.259 101.788 191.499 119.996 189.607 154.451C188.403 176.387 187.715 186.286 186.722 195.954C186.428 198.85 186.168 201.748 185.943 204.65C185.136 215.565 183.922 225.699 181.856 238.742C181.15 243.201 181.051 244.249 180.997 247.833C180.793 261.348 175.832 269.023 166.422 270.376C165.509 270.507 163.605 270.954 162.19 271.369C150.717 274.732 138.479 276.515 121.71 277.267C108.111 277.877 104.178 277.938 97.3627 277.647ZM50.647 257.206C48.2045 247.264 46.776 242.545 45.059 238.743C43.2197 234.671 42.8021 234.132 43.0294 236.123C44.0736 245.274 46.5888 253.762 50.6842 261.946C52.8436 266.261 52.8421 266.145 50.647 257.206M46.3661 263.791C47.0792 261.136 45.9391 255.552 42.6203 245.435C40.7269 239.667 39.3324 234.649 39.0695 232.664C38.897 231.363 38.7183 231.254 37.9774 231.993C36.7886 233.18 37.1482 235.635 39.8251 244.618C40.5444 247.035 41.2366 249.792 41.3611 250.744C42.0936 256.343 45.7837 265.962 46.3661 263.791ZM113.485 234.359C117.097 231.97 116.623 225.009 112.698 222.788C109.163 220.79 107.266 225.144 108.766 231.809C109.439 234.798 111.3 235.804 113.485 234.359ZM102.839 233.833C105.532 232.454 106.427 227.853 104.739 224.059C103.075 220.318 99.7371 222.213 99.1354 227.24C99.0488 227.968 98.843 229.417 98.6791 230.46C98.0912 234.202 99.6497 235.464 102.839 233.833ZM37.2983 226.954C37.7306 223.504 36.8342 218.518 33.9377 208.243C33.1155 205.329 32.1681 201.549 31.8316 199.844C30.7326 194.269 29.0674 191.552 29.8717 196.645C30.2615 199.118 32.4651 210.398 32.94 212.357C33.2037 213.444 33.6492 216.186 33.93 218.45C34.6291 224.089 35.2425 226.323 36.4483 227.624C37.0461 228.27 37.1428 228.192 37.2983 226.954ZM83.1113 207.884C98.1895 204.434 103.051 185.608 91.1504 176.755C83.4764 171.047 78.671 170.633 66.6819 174.643C64.2325 175.463 62.0274 176.26 61.7814 176.414C60.9075 176.963 59.5563 178.909 59.5563 179.619C59.5563 179.983 59.2067 181.147 58.779 182.206C53.1159 196.23 67.5343 211.448 83.1113 207.884ZM64.0097 197.11C58.0782 196.226 56.7997 191.183 61.3398 186.579C64.6385 183.235 68.4786 182.946 71.2978 185.828C76.8766 191.534 72.4603 198.37 64.0097 197.111M139.216 205.113C149.573 203.376 156.067 191.487 151.796 182.083C141.796 160.062 105.879 170.64 113.756 193.287C117.123 202.969 126.374 207.267 139.216 205.113ZM119.039 195.974C114.422 194.839 112.924 190.626 115.398 185.733C118.491 179.616 125.109 179.688 128.374 185.875C130.346 189.612 129.899 190.857 126.701 190.535C123.825 190.245 122.881 190.655 124.288 191.585C125.312 192.262 126.622 193.44 126.875 193.911C127.664 195.385 122.342 196.785 119.039 195.973M70.3674 114.264C71.1416 114.152 71.6907 113.886 72.6954 113.137C73.4194 112.598 74.5671 111.749 75.2454 111.253C81.368 106.766 83.3379 105.193 85.5863 102.997C86.3481 102.253 88.5749 100.247 90.5348 98.5402C92.4939 96.8336 94.4638 95.1077 94.9101 94.7053C95.3571 94.3038 96.1592 93.5887 96.6921 93.1184C98.3635 91.6404 101.323 88.9392 103.599 86.814C106.27 84.3197 112.043 78.4894 112.003 78.3273C111.907 77.9396 110.204 77.6153 108.151 77.5937C106.021 77.5705 105.975 77.5612 105.99 77.1211C106.012 76.5249 106.037 76.528 100.234 76.3952C53.8119 75.3241 22.7058 73.7264 5.8944 71.5472C3.93605 71.2939 3.73573 71.3001 3.73573 71.6136C3.73573 72.1634 5.3383 73.6831 6.60519 74.3357C8.19924 75.1558 8.22322 75.5149 6.70264 75.7921C5.07223 76.0886 5.12096 75.8963 5.76137 79.4725C8.32918 93.8204 12.1043 97.0676 20.0738 91.7863C24.658 88.7484 54.0285 85.6024 73.4124 86.0719C76.7397 86.153 79.0337 86.1182 80.1421 85.9715C81.0679 85.848 82.3325 85.7012 82.9528 85.6441C83.5738 85.5869 84.1856 85.4147 84.314 85.2611C84.4408 85.1074 84.8856 84.9815 85.3001 84.9815C85.7155 84.9815 86.3056 84.8788 86.6119 84.7529C88.7102 83.8927 104.687 83.5622 104.687 84.3792C104.687 84.5228 103.866 85.3059 101.958 86.977C101.513 87.3677 99.205 89.1453 96.8305 90.9276C93.231 93.6304 90.8256 95.4961 89.7428 96.4266C89.6345 96.5201 88.4434 97.7672 87.0976 99.1974C81.5606 105.08 75.7791 109.129 70.8106 110.602C70.116 110.808 69.8345 111.011 69.6751 111.418C69.4075 112.104 68.5444 113.637 68.2737 113.907C67.8228 114.358 68.0432 114.677 68.7114 114.541C69.2613 114.437 69.8134 114.344 70.3674 114.264ZM79.8459 112.454C79.9201 112.334 81.4206 112.256 83.686 112.256C88.0737 112.256 91.623 112.066 91.623 111.831C91.623 111.738 91.4961 111.663 91.3407 111.663C90.4976 111.663 90.2347 110.68 90.766 109.519C91.4265 108.078 92.0422 107.385 98.785 100.497C101.446 97.7788 103.982 95.1115 104.422 94.5679C108.229 89.8658 111.299 85.3916 110.954 85.0464C110.806 84.8981 107.884 87.6287 107.437 88.3337C107.262 88.6102 106.416 89.5307 105.557 90.3786C103.873 92.042 103.774 92.1501 100.618 95.8529C99.4594 97.2112 98.2591 98.5896 97.9505 98.9155C97.6419 99.2421 96.9496 99.9982 96.4113 100.596C94.6425 102.563 91.3933 105.704 89.9408 106.852C86.6769 109.432 81.6364 111.974 80.0431 111.844C79.5055 111.8 78.3609 112.075 78.3609 112.248C78.3609 112.665 79.6076 112.838 79.8459 112.454ZM125.249 111.676C125.501 111.297 125.713 111.268 128.217 111.265C131.894 111.261 133.861 110.497 132.496 109.605C132.218 109.422 132.003 109.092 132.002 108.842C131.996 107.311 130.862 106.047 130.235 106.871C128.412 109.268 128.071 109.622 127.152 110.082C121.183 113.07 117.638 106.201 120.622 97.429C123.196 89.8643 123.402 89.1801 124.01 86.1684C124.305 84.7097 124.032 81.8417 123.591 81.7668C122.662 81.6108 118.367 95.1864 116.573 103.956C115.799 107.732 115.784 107.771 114.741 108.43C111.079 110.746 109.61 109.676 110.767 105.537C111.129 104.241 112.289 101.032 112.821 99.8568C113.029 99.3958 113.2 98.9688 113.2 98.907C113.2 98.8452 113.382 98.378 113.606 97.8676C116.211 91.9238 116.824 89.7577 115.971 89.5122C113.51 88.804 110.127 90.6913 108.651 93.5972C108.49 93.9138 108.158 94.5015 107.912 94.9038C107.354 95.8197 106.381 97.6197 104.73 100.794C102.479 105.118 101.983 105.943 100.466 107.883C98.8569 109.938 97.184 110.944 94.4932 111.473C92.5697 111.85 92.6014 111.948 94.6912 112.083C100.119 112.434 124.964 112.104 125.249 111.676ZM102.947 110.666C102.099 110.326 101.665 108.559 102.137 107.374C103.071 105.034 104.324 103.086 108.665 97.2359C109.591 95.9857 110.688 94.4521 111.101 93.8266C113.303 90.4936 113.633 96.3842 111.519 101.288C109.26 106.526 105.551 110.998 103.58 110.86C103.481 110.853 103.197 110.766 102.947 110.666ZM155.517 109.869C156.62 109.747 157.573 109.537 157.753 109.374C157.968 109.181 158.562 109.094 159.671 109.094C160.554 109.094 161.331 109.005 161.399 108.896C161.466 108.788 161.684 108.699 161.882 108.699C162.213 108.699 162.6 107.954 162.382 107.737C162.332 107.687 161.824 107.752 161.252 107.879C160.24 108.104 159.371 108.238 157.539 108.45C155.108 108.732 148.329 108.543 146.464 108.141C145.808 108.001 145.77 107.944 145.561 106.788C145.184 104.705 144.078 103.726 142.661 104.221C141.261 104.712 141.182 104.969 142.295 105.414C143.103 105.737 143.88 106.375 143.88 106.716C143.88 107.077 142.651 108.303 142.289 108.303C142.088 108.303 141.875 108.384 141.814 108.481C141.681 108.698 139.353 109.418 138.19 109.604C136.003 109.951 137.991 110.083 145.472 110.083C149.963 110.083 154.456 109.987 155.518 109.869M168.383 99.1217C169.449 98.941 170.604 97.9193 170.604 97.1572C170.604 96.5865 170.154 96.2853 169.761 96.5927C169.516 96.7834 167.998 97.1826 167.437 97.2035C167.274 97.2097 166.764 97.2753 166.305 97.3494C163.269 97.839 154.823 95.1656 150.873 92.4651C150.418 92.1547 149.994 91.8999 149.931 91.8999C149.746 91.8999 147.792 90.513 147.197 89.9608C145.15 88.0565 148.977 87.8727 153.977 89.6342C157.138 90.7485 157.553 90.9091 158.402 91.347C159.712 92.0226 159.864 92.0883 161.261 92.5817C164.477 93.7169 164.744 93.4459 162.191 91.6358C158.39 88.9392 154.346 87.2688 152.83 87.7685C151.185 88.3106 147.43 87.3322 143.881 85.4387C137.527 82.0463 135.123 81.4308 137.29 83.7521C140.195 86.8619 143.962 90.3315 146.337 92.0844C147.814 93.1733 149.828 94.5478 150.216 94.7301C150.379 94.8073 150.913 95.1023 151.404 95.3865C152.545 96.049 156.326 97.744 157.292 98.0275C159.182 98.5819 160.126 98.8043 161.119 98.9309C161.709 99.0051 162.3 99.124 162.434 99.1935C162.752 99.3611 167.296 99.3062 168.383 99.1217ZM145.069 70.0267C145.559 69.985 146.361 69.9108 146.851 69.8614C147.802 69.7649 150.741 69.1718 152.691 68.6822C153.343 68.5177 156.149 68.0737 158.925 67.6946C169.189 66.2937 172.226 65.1509 174.776 61.7315C175.894 60.2341 175.898 60.0418 174.867 58.0472C172.804 54.0548 174.969 52.8239 179.809 55.2402C181.505 56.0873 181.491 56.0873 181.491 55.2502C181.491 54.4911 181.34 54.3482 180.318 54.1382C174.757 52.9992 172.187 48.8006 175.108 45.6237C175.632 45.0522 175.589 44.4252 174.842 41.7502C174.513 40.5718 174.322 40.5046 173.365 41.2259C172.989 41.5085 172.297 41.9085 171.825 42.1155C170.968 42.4908 170.968 42.4908 171.845 43.3665C174.64 46.1565 171.105 49.6107 165.062 49.9952C161.102 50.247 160.761 50.369 162.551 50.8887C165.578 51.7675 166.03 53.6478 163.51 54.871C161.162 56.0108 161.267 56.0973 164.185 55.4332C168.866 54.3675 172.466 54.522 172.919 55.8101C174.168 59.3576 171.736 62.9917 166.843 64.8906C165.673 65.3447 164.972 65.5578 162.587 66.1825C161.381 66.4984 157.901 67.0297 157.787 66.9154C157.731 66.8598 157.538 66.893 157.357 66.9903C157.176 67.0868 156.319 67.2243 155.452 67.2961C150.384 67.7146 147.71 68.0668 142.056 69.0629C138.925 69.6135 138.537 69.7147 138.537 69.9772C138.537 70.1688 142.422 70.3402 143.486 70.1966C144.012 70.1291 144.54 70.0724 145.069 70.0267ZM161.962 41.9371C163.192 41.1167 164.424 40.2995 165.657 39.4853C169.615 36.8713 172.309 34.055 172.87 31.9453C173.019 31.387 173.199 30.7847 173.27 30.6078C173.487 30.0665 172.76 28.1074 172.499 28.5352C171.303 30.5043 170.403 31.6302 168.63 33.3801C165.686 36.2836 164.613 37.2891 164.256 37.4814C163.667 37.7987 160.477 41.405 160.196 42.0707C159.643 43.3827 159.822 43.3688 161.962 41.9371ZM20.7583 56.5514C20.7583 56.3506 21.0561 55.7946 21.4212 55.3158C22.3369 54.1173 22.7375 53.288 22.7375 52.5922C22.7375 51.82 22.4738 51.9188 27.2142 50.9072C37.8211 48.6446 42.3643 48.0631 50.4846 47.928C93.3145 47.2175 105.886 46.826 119.499 45.7735C122.963 45.5063 122.956 45.5048 123.908 47.0021C125.964 50.2392 120.143 52.3667 111.12 51.6763C110.249 51.6092 106.107 51.5296 101.916 51.498C94.2944 51.4408 94.2944 51.4408 90.1565 50.6084C84.116 49.3937 82.3464 49.4639 80.6069 50.9891C79.7909 51.7042 80.0524 51.7011 78.0971 51.013C73.1541 49.274 67.0385 49.1674 57.1803 50.6493C53.8591 51.1481 49.985 51.6547 48.5696 51.7744C41.2157 52.3968 34.3198 53.6687 25.4732 56.0355C21.7955 57.0194 20.7583 57.1329 20.7583 56.5514Z" fill="#F3D71D"/>
<path d="M97.3627 277.647C74.3003 276.662 58.2654 273.599 45.4689 267.736C43.601 266.881 43.881 267.454 41.867 260.374C38.3579 248.044 35.6911 236.871 32.834 222.536C31.3861 215.269 30.7078 212.231 27.3635 198.029C21.3616 172.546 19.0823 160.829 17.7705 148.72C17.4387 145.653 18.0366 141.46 18.9763 140.266C19.5324 139.561 19.5432 137.758 18.9926 137.615C18.6716 137.531 18.5919 137.259 18.4744 135.851C18.3769 134.682 18.2245 134.046 17.9639 133.714C17.711 133.394 17.5911 132.921 17.5911 132.247C17.5911 131.7 17.5021 131.197 17.3931 131.13C17.274 131.057 17.1951 129.716 17.1951 127.771C17.1951 125.825 17.1162 124.484 16.9971 124.41C16.8888 124.343 16.7991 124.466 16.7991 124.684C16.7991 127.12 15.0457 122.683 14.0232 117.66C11.4005 104.772 7.09555 91.9632 8.08555 99.9951C8.43359 102.821 9.07555 105.598 10.9194 112.256C13.085 120.077 14.072 125.616 13.6311 127.478C13.0015 130.14 8.93478 114.155 6.59126 99.8051C5.99572 96.1641 5.10317 90.6944 4.60585 87.6503C3.49597 80.8501 2.46343 75.7427 1.05268 70.0746C-0.359618 64.4018 -0.3194 63.4813 1.43553 61.2504C5.0529 56.6502 15.6683 53.0749 16.8153 56.0688C17.6019 58.1213 15.2839 59.5438 8.98041 60.8751C3.51685 62.0288 3.0118 62.8543 5.97716 65.7787C8.94251 68.7023 26.1414 71.3155 46.4914 71.9341C82.532 73.0306 105.381 73.3187 111.813 72.7588C113.391 72.6221 115.636 72.4576 116.801 72.3943C118.918 72.2785 118.918 72.2785 118.822 71.7634C118.749 71.3727 118.918 71.0066 119.517 70.2591C120.009 69.6415 120.491 69.0154 120.961 68.3811C122.258 66.6142 124.336 66.0613 125.177 67.2598C125.734 68.0536 125.476 68.2807 124.863 67.537C123.888 66.3571 122.413 66.8297 121.017 68.7687C120.618 69.3187 120.205 69.8594 119.78 70.3904C118.402 72.0939 119.654 73.3017 122.076 72.6051C123.787 72.1124 125.273 70.3641 125.273 68.8421C125.273 68.4807 125.339 68.3679 125.472 68.5008C126.036 69.0637 124.65 71.6368 123.45 72.2569C122.638 72.6762 122.871 72.8051 124.745 72.9735C125.634 73.0538 126.872 73.1735 127.496 73.2391C129.382 73.4376 130.82 72.7572 130.028 72.0414C128.282 70.4638 131.567 67.2814 136.655 65.6219C137.417 65.374 138.125 65.0922 138.229 64.9964C138.332 64.9022 138.557 64.8242 138.73 64.8242C139.379 64.8242 141.236 63.3879 143.295 61.2936C145.397 59.1553 146.365 58.3453 146.571 58.5522C146.63 58.6101 146.337 58.9074 145.921 59.2132C142.85 61.4759 142.722 62.3461 145.688 60.8071C149.998 58.5708 151.796 58.1113 150.4 59.6024C148.607 61.5176 142.685 64.3416 141.966 63.6242C141.815 63.4736 141.44 63.6134 140.671 64.1045C140.074 64.4852 138.704 65.1053 137.626 65.4829C133.926 66.7779 132.962 67.3177 130.82 69.2985C123.964 75.6361 160.789 72.999 181.022 65.703C184.415 64.479 185.064 63.7493 184.791 61.4558C184.324 57.5136 176.598 52.5999 174.471 54.8911C173.964 55.4371 173.756 55.285 174.215 54.7058C175.006 53.7065 177.145 53.9112 179.807 55.2402C181.504 56.0881 181.489 56.0881 181.489 55.2456C181.489 54.5104 181.107 54.1645 180.265 54.1374C179.821 54.1228 178.054 53.4054 178.391 53.376C178.483 53.3683 179.052 53.5042 179.653 53.6787C183.934 54.9212 185.523 52.7768 183.468 48.5334C183.254 48.0909 182.638 45.9943 182.1 43.8746C179.277 32.7538 173.548 20.7519 171.06 20.7519C170.472 20.7519 170.483 20.7797 169.503 16.9966C167.819 10.5022 166.577 8.11299 164.176 6.74924C158.959 3.78545 157.682 -1.60079 162.685 0.457177C173.42 4.87429 184.364 18.3882 192.352 37.0922C198.039 50.4115 199.533 73.0005 195.844 89.9238C193.259 101.788 191.499 119.996 189.607 154.451C188.403 176.387 187.715 186.286 186.722 195.954C186.428 198.85 186.168 201.748 185.943 204.65C185.136 215.565 183.922 225.699 181.856 238.742C181.15 243.201 181.051 244.248 180.997 247.833C180.793 261.348 175.832 269.023 166.422 270.376C165.509 270.507 163.605 270.954 162.19 271.369C150.717 274.732 138.479 276.515 121.71 277.267C108.111 277.877 104.178 277.938 97.3627 277.647ZM50.647 257.206C48.2045 247.264 46.776 242.545 45.059 238.743C43.2197 234.671 42.8021 234.132 43.0294 236.123C44.0736 245.274 46.5888 253.761 50.6842 261.945C52.8436 266.261 52.8421 266.145 50.647 257.206M46.3661 263.791C47.0792 261.136 45.9391 255.551 42.6203 245.435C40.7269 239.667 39.3324 234.649 39.0695 232.664C38.897 231.363 38.7183 231.254 37.9774 231.993C36.7886 233.18 37.1482 235.635 39.8251 244.618C40.5444 247.035 41.2366 249.792 41.3611 250.744C42.0936 256.343 45.7837 265.962 46.3661 263.791ZM113.485 234.359C117.097 231.97 116.623 225.009 112.698 222.788C109.163 220.79 107.266 225.144 108.766 231.809C109.439 234.798 111.3 235.804 113.485 234.359ZM102.839 233.833C105.532 232.454 106.427 227.853 104.739 224.059C103.075 220.318 99.7371 222.213 99.1354 227.24C99.0488 227.968 98.843 229.417 98.6791 230.46C98.0912 234.202 99.6497 235.464 102.839 233.833ZM37.2983 226.954C37.7306 223.504 36.8342 218.518 33.9377 208.243C33.1155 205.329 32.1681 201.549 31.8316 199.844C30.7326 194.269 29.0674 191.552 29.8717 196.645C30.2615 199.118 32.4651 210.398 32.94 212.357C33.2037 213.444 33.6492 216.186 33.93 218.45C34.6291 224.089 35.2425 226.323 36.4483 227.624C37.0461 228.27 37.1428 228.192 37.2983 226.954ZM83.1113 207.884C98.1895 204.434 103.051 185.608 91.1504 176.755C83.4764 171.047 78.671 170.633 66.6819 174.643C64.2325 175.463 62.0274 176.26 61.7814 176.414C60.9075 176.963 59.5563 178.909 59.5563 179.619C59.5563 179.983 59.2067 181.147 58.779 182.206C53.1159 196.23 67.5343 211.448 83.1113 207.884ZM64.0097 197.11C58.0782 196.226 56.7997 191.183 61.3398 186.579C64.6385 183.235 68.4786 182.946 71.2978 185.828C76.8766 191.534 72.4603 198.37 64.0097 197.111M139.216 205.113C149.573 203.376 156.067 191.487 151.796 182.083C141.796 160.062 105.879 170.64 113.756 193.287C117.123 202.969 126.374 207.267 139.216 205.113ZM119.039 195.974C114.422 194.839 112.924 190.626 115.398 185.733C118.491 179.616 125.109 179.688 128.374 185.875C130.346 189.612 129.899 190.857 126.701 190.535C123.825 190.245 122.881 190.655 124.288 191.585C125.312 192.262 126.622 193.44 126.875 193.911C127.664 195.385 122.342 196.785 119.039 195.973M70.3705 114.264C71.1501 114.151 71.69 113.89 72.6916 113.137C73.4101 112.598 74.5115 111.782 75.1395 111.325C78.5952 108.811 81.5675 106.553 82.6171 105.645C83.9783 104.469 84.2993 104.252 84.2993 104.512C84.2993 104.614 83.7873 105.113 83.1608 105.621C82.5351 106.129 81.8684 106.671 81.6789 106.827C81.1522 107.259 77.4428 110.017 75.3151 111.559C73.0334 113.212 73.0071 113.304 74.8471 113.173C77.4513 112.988 77.9935 112.855 77.8597 112.432C77.7235 112.005 78.5326 111.588 79.2387 111.722C79.5597 111.784 79.5071 111.834 78.9966 111.955C78.6385 112.04 78.3779 112.21 78.4181 112.331C78.5163 112.631 79.5458 112.733 79.8103 112.469C79.948 112.331 81.3394 112.256 83.7146 112.256C88.0768 112.256 91.623 112.065 91.623 111.83C91.623 111.737 91.4961 111.663 91.3407 111.663C91.0236 111.663 90.4358 111.14 90.4358 110.858C90.4358 110.758 90.6137 110.853 90.8318 111.07C91.1125 111.351 91.4915 111.465 92.1389 111.465C92.8373 111.465 93.0268 111.529 92.9456 111.741C92.6555 112.494 124.737 112.422 125.249 111.668C125.499 111.299 125.731 111.266 128.217 111.264C131.894 111.26 133.861 110.497 132.496 109.604C132.218 109.422 132.003 109.091 132.002 108.842C132.002 108.599 131.782 107.934 131.516 107.364C131.25 106.793 131.112 106.327 131.21 106.327C131.464 106.327 131.614 106.62 132.108 108.083C132.533 109.345 132.572 109.388 133.413 109.604C134.256 109.82 134.264 109.829 133.686 109.924C133.36 109.978 133.894 110.024 134.874 110.025C136.125 110.029 136.449 109.986 135.963 109.883C135.582 109.804 135.331 109.727 135.404 109.712C135.478 109.698 136.232 109.59 137.079 109.473C139.752 109.101 141.666 108.396 141.74 107.754C141.796 107.268 141.879 107.215 142.591 107.215C143.972 107.215 143.63 105.889 142.178 105.618C141.457 105.482 141.002 105.079 141.203 104.753C141.4 104.436 142.492 103.919 142.756 104.019C142.89 104.069 142.82 104.165 142.594 104.243C141.351 104.67 141.264 105.001 142.286 105.409C143.101 105.735 143.881 106.373 143.881 106.714C143.881 107.077 142.651 108.303 142.288 108.303C142.088 108.303 141.875 108.383 141.814 108.48C141.681 108.697 139.353 109.418 138.19 109.603C136.003 109.951 137.991 110.082 145.472 110.082C153.742 110.082 157.187 109.883 157.753 109.374C157.968 109.18 158.562 109.093 159.671 109.093C160.554 109.093 161.331 109.005 161.399 108.896C161.466 108.788 161.684 108.698 161.882 108.698C162.213 108.698 162.6 107.954 162.382 107.736C162.332 107.686 161.824 107.744 161.252 107.864C159.169 108.3 158.924 108.331 158.924 108.164C158.924 108.07 159.56 107.876 160.337 107.732C167.247 106.456 172.547 102.594 174.768 97.2158C175.076 96.4699 175.972 94.6791 176.758 93.2366C181.567 84.417 184.375 76.796 183.657 74.5133C183.543 74.1165 183.452 73.7135 183.384 73.3063C183.162 71.9626 183.051 71.9178 180.698 72.2298C170.181 73.6275 149.743 75.7156 137.25 76.6701C128.476 77.3412 116.539 78.0601 114.134 78.0632C113.187 78.0647 113.187 78.0647 109.687 81.4146C105.307 85.6078 104.939 85.6256 109.124 81.4424C110.845 79.7211 112.177 78.2686 112.083 78.213C111.445 77.84 109.071 77.4693 107.626 77.5165C106.021 77.569 105.975 77.5582 105.99 77.1211C106.012 76.5249 106.037 76.528 100.234 76.3952C53.8119 75.3241 22.7058 73.7264 5.8944 71.5472C3.93605 71.2939 3.73573 71.3001 3.73573 71.6136C3.73573 72.1634 5.3383 73.6831 6.60519 74.3357C8.19924 75.1558 8.22322 75.5149 6.70264 75.7921C5.07223 76.0886 5.12096 75.8963 5.76137 79.4725C8.32918 93.8204 12.1043 97.0676 20.0738 91.7863C24.658 88.7484 54.0285 85.6024 73.4124 86.0719C76.7397 86.153 79.0337 86.1182 80.1421 85.9715C81.0679 85.848 82.3325 85.7012 82.9528 85.6441C83.5738 85.587 84.1856 85.4147 84.314 85.2611C84.4408 85.1074 84.8856 84.9815 85.3001 84.9815C85.7155 84.9815 86.3056 84.8788 86.6119 84.753C88.7102 83.8927 104.687 83.5622 104.687 84.3792C104.687 84.5228 103.866 85.3059 101.958 86.977C101.513 87.3677 99.205 89.1453 96.8305 90.9276C93.231 93.6304 90.8256 95.4961 89.7428 96.4266C89.6345 96.5201 88.4434 97.7672 87.0976 99.1974C81.5606 105.08 75.7791 109.129 70.8106 110.602C70.116 110.808 69.8345 111.011 69.6751 111.418C69.4075 112.104 68.5444 113.637 68.2737 113.907C67.8228 114.358 68.0432 114.677 68.7114 114.541C69.2623 114.437 69.8155 114.344 70.3705 114.264ZM20.7583 56.5514C20.7583 56.3506 21.0561 55.7946 21.4212 55.3158C22.3369 54.1174 22.7375 53.288 22.7375 52.5922C22.7375 51.82 22.4738 51.9188 27.2142 50.9072C37.8211 48.6446 42.3643 48.0631 50.4846 47.928C93.3145 47.2175 105.886 46.826 119.499 45.7735C122.963 45.5063 122.956 45.5048 123.908 47.0021C125.964 50.2393 120.143 52.3667 111.12 51.6764C110.249 51.6092 106.107 51.5296 101.916 51.498C94.2944 51.4408 94.2944 51.4408 90.1565 50.6084C84.116 49.3937 82.3464 49.4639 80.6069 50.9891C79.7909 51.7042 80.0524 51.7011 78.0971 51.013C73.1541 49.274 67.0385 49.1674 57.1803 50.6493C53.8591 51.1482 49.985 51.6547 48.5696 51.7744C41.2157 52.3968 34.3198 53.6687 25.4732 56.0356C21.7955 57.0194 20.7583 57.1329 20.7583 56.5514Z" fill="#D5AD2D"/>
<path d="M97.3627 277.647C74.3003 276.662 58.2654 273.599 45.4689 267.736C43.601 266.881 43.881 267.454 41.867 260.374C38.3579 248.044 35.6911 236.871 32.834 222.536C31.3861 215.269 30.7078 212.231 27.3635 198.029C21.3616 172.546 19.0823 160.829 17.7705 148.72C17.4387 145.653 18.0366 141.46 18.9763 140.266C19.5324 139.561 19.5432 137.758 18.9926 137.615C18.6716 137.531 18.5919 137.259 18.4744 135.851C18.3769 134.682 18.2245 134.046 17.9639 133.714C17.711 133.394 17.5911 132.921 17.5911 132.247C17.5911 131.7 17.5021 131.197 17.3931 131.13C17.274 131.057 17.1951 129.716 17.1951 127.771C17.1951 125.825 17.1162 124.484 16.9971 124.41C16.8888 124.343 16.7991 124.466 16.7991 124.684C16.7991 127.12 15.0457 122.683 14.0232 117.66C11.4005 104.772 7.09555 91.9632 8.08555 99.995C8.43359 102.821 9.07555 105.598 10.9194 112.256C13.085 120.077 14.072 125.616 13.6311 127.478C13.0015 130.14 8.93478 114.155 6.59126 99.8051C5.99572 96.1641 5.10317 90.6944 4.60585 87.6503C3.49597 80.8501 2.46343 75.7426 1.05268 70.0745C-0.359618 64.4018 -0.3194 63.4813 1.43553 61.2503C5.0529 56.6502 15.6683 53.0748 16.8153 56.0687C17.6019 58.1213 15.2839 59.5437 8.98041 60.875C3.51685 62.0287 3.0118 62.8542 5.97716 65.7786C8.94251 68.7023 26.1414 71.3155 46.4914 71.934C82.5011 73.029 105.368 73.3179 111.813 72.7603C118.179 72.2089 118.563 72.2128 119.627 72.836C120.575 73.3904 120.575 73.3904 121.786 73.0908C122.997 72.7897 123.288 72.7974 127.51 73.2399C128.429 73.3356 128.871 73.2738 129.726 72.9271C130.675 72.5425 130.879 72.5225 131.548 72.7441C132.935 73.2043 146.153 73.0715 150.808 72.551C163.755 71.1008 179.08 67.5717 184.177 64.8659C184.777 64.547 188.719 63.5933 191.288 63.1446C193.755 62.7145 195.349 62.3345 196.534 61.8959C197.622 61.4928 197.622 61.4928 197.75 63.2079C198.319 70.8328 197.469 83.1374 195.939 89.4295C195.537 91.0797 195.065 93.713 194.361 98.2243C194.132 99.6916 193.847 101.086 193.728 101.324C193.608 101.561 193.565 101.961 193.631 102.212C193.697 102.465 193.532 104.449 193.264 106.623C191.855 118.063 190.968 129.665 189.607 154.451C188.403 176.387 187.715 186.286 186.722 195.954C186.428 198.85 186.168 201.748 185.943 204.65C185.136 215.565 183.922 225.699 181.856 238.742C181.15 243.201 181.051 244.248 180.997 247.833C180.793 261.348 175.832 269.023 166.422 270.376C165.509 270.507 163.605 270.954 162.19 271.369C150.717 274.732 138.479 276.515 121.71 277.267C108.111 277.877 104.178 277.938 97.3627 277.647ZM50.647 257.206C48.2045 247.264 46.776 242.545 45.059 238.743C43.2197 234.671 42.8021 234.132 43.0294 236.123C44.0736 245.274 46.5888 253.761 50.6842 261.945C52.8436 266.261 52.8421 266.145 50.647 257.206M46.3661 263.791C47.0792 261.136 45.9391 255.551 42.6203 245.435C40.7269 239.667 39.3324 234.649 39.0695 232.664C38.897 231.363 38.7183 231.254 37.9774 231.993C36.7886 233.18 37.1482 235.635 39.8251 244.618C40.5444 247.035 41.2366 249.792 41.3611 250.744C42.0936 256.343 45.7837 265.962 46.3661 263.791ZM113.485 234.359C117.097 231.97 116.623 225.009 112.698 222.788C109.163 220.79 107.266 225.144 108.766 231.809C109.439 234.798 111.3 235.804 113.485 234.359ZM102.839 233.833C105.532 232.454 106.427 227.853 104.739 224.059C103.075 220.318 99.7371 222.213 99.1354 227.24C99.0488 227.968 98.843 229.417 98.6791 230.46C98.0912 234.202 99.6497 235.464 102.839 233.833ZM37.2983 226.954C37.7306 223.503 36.8342 218.518 33.9377 208.243C33.1155 205.329 32.1681 201.549 31.8316 199.844C30.7326 194.269 29.0674 191.552 29.8717 196.645C30.2615 199.117 32.4651 210.398 32.94 212.357C33.2037 213.444 33.6492 216.186 33.93 218.45C34.6291 224.089 35.2425 226.323 36.4483 227.624C37.0461 228.27 37.1428 228.192 37.2983 226.954ZM96.8213 220.559C98.8376 219.473 100.896 218.978 103.383 218.979C105.297 218.981 106.74 219.178 112.21 220.185C118.884 221.415 122.809 220.49 122.345 217.793C121.297 211.684 118.185 210.343 108.632 211.883C103.058 212.781 99.0225 212.823 96.7547 212.007C94.9635 211.363 95.0725 211.368 93.743 211.865C88.9345 213.661 89.1457 219.384 94.0787 220.945C94.7423 221.155 95.3007 221.332 95.3192 221.339C95.3386 221.344 96.0146 220.994 96.8213 220.559ZM83.1113 207.884C98.1895 204.434 103.051 185.608 91.1504 176.755C83.4764 171.047 78.671 170.633 66.6819 174.643C64.2325 175.463 62.0274 176.26 61.7814 176.414C60.9075 176.963 59.5563 178.909 59.5563 179.619C59.5563 179.983 59.2067 181.147 58.779 182.206C53.1159 196.23 67.5343 211.448 83.1113 207.884ZM64.0097 197.11C58.0782 196.226 56.7997 191.183 61.3398 186.579C64.6385 183.235 68.4786 182.946 71.2978 185.828C76.8766 191.534 72.4603 198.37 64.0097 197.11M139.216 205.113C149.573 203.376 156.067 191.487 151.796 182.083C141.796 160.062 105.879 170.64 113.756 193.287C117.123 202.969 126.374 207.267 139.216 205.113ZM119.039 195.974C114.422 194.839 112.924 190.626 115.398 185.733C118.491 179.616 125.109 179.688 128.374 185.875C130.346 189.612 129.899 190.857 126.701 190.535C123.825 190.245 122.881 190.655 124.288 191.585C125.312 192.262 126.622 193.44 126.875 193.911C127.664 195.385 122.342 196.785 119.039 195.973M69.2428 114.436C69.44 114.331 70.157 114.222 70.8361 114.195C71.8299 114.157 72.0968 114.076 72.2058 113.78C72.325 113.46 72.6142 113.405 74.5099 113.348C77.36 113.261 78.4892 113.103 79.4491 112.654C80.306 112.253 88.5447 111.932 93.9974 112.086C103.694 112.361 124.977 112.083 125.246 111.679C125.501 111.296 125.705 111.267 128.217 111.264C131.039 111.261 132.19 111.035 132.66 110.394C132.9 110.066 133.576 110.046 143.198 110.069C153.677 110.095 157.134 109.93 157.752 109.374C157.968 109.18 158.561 109.093 159.67 109.093C160.553 109.093 161.331 109.005 161.398 108.896C161.477 108.769 164.4 108.698 169.519 108.698C177.229 108.698 177.524 108.684 177.722 108.315C177.9 107.984 178.216 107.917 180.055 107.826C184.431 107.608 185.543 107.485 185.879 107.184C186.135 106.952 186.641 106.899 188.144 106.943C190.079 106.998 190.079 106.998 190.319 106.119C190.451 105.635 190.737 104.75 190.956 104.153C191.273 103.285 191.381 102.328 191.49 99.4089C191.641 95.415 191.78 94.1416 192.311 91.8991C192.738 90.1006 192.748 78.1072 192.328 73.4198C192.065 70.4954 186.66 69.3965 182.658 71.4553C181.998 71.795 165.97 73.6916 153.579 74.8963C141.051 76.1148 125.246 77.2724 116.761 77.5929C114.504 77.6778 113.115 77.8153 112.773 77.9883C112.324 78.2145 112.094 78.2045 111.189 77.9164C110.479 77.6917 109.447 77.5797 108.052 77.5759C106.019 77.5705 105.974 77.5604 105.99 77.121C106.011 76.5249 106.036 76.528 100.233 76.3952C53.8112 75.3241 22.7051 73.7264 5.89362 71.5471C3.93528 71.2939 3.73496 71.3 3.73496 71.6136C3.73496 72.1634 5.33752 73.6831 6.60441 74.3356C8.19847 75.1557 8.22244 75.5148 6.70187 75.7921C5.07146 76.0886 5.12019 75.8963 5.76059 79.4725C8.3284 93.8204 12.1036 97.0675 20.0731 91.7863C24.6572 88.7484 54.0277 85.6024 73.4116 86.0719C76.739 86.153 79.033 86.1182 80.1413 85.9715C81.0671 85.8479 82.3317 85.7012 82.952 85.6441C83.573 85.5869 84.1848 85.4147 84.3132 85.261C84.4401 85.1074 84.8848 84.9815 85.2994 84.9815C85.7147 84.9815 86.3048 84.8788 86.6111 84.7529C88.7094 83.8927 104.686 83.5622 104.686 84.3792C104.686 84.5228 103.865 85.3058 101.958 86.9769C101.512 87.3677 99.2042 89.1453 96.8298 90.9276C93.2302 93.6304 90.8248 95.4961 89.742 96.4266C89.6337 96.52 88.4426 97.7672 87.0968 99.1973C81.5598 105.08 75.7783 109.129 70.8098 110.602C70.1152 110.808 69.8337 111.011 69.6744 111.418C69.4068 112.103 68.5436 113.637 68.2729 113.907C67.6975 114.482 68.4199 114.875 69.2428 114.436ZM20.7591 56.5514C20.7591 56.3506 21.0569 55.7946 21.4219 55.3158C22.3377 54.1173 22.7383 53.288 22.7383 52.5922C22.7383 51.82 22.4746 51.9188 27.215 50.9072C37.8219 48.6446 42.3651 48.0631 50.4854 47.928C93.3153 47.2175 105.887 46.826 119.5 45.7735C122.964 45.5063 122.957 45.5047 123.909 47.0021C125.965 50.2392 120.143 52.3667 111.121 51.6763C110.25 51.6091 106.108 51.5296 101.917 51.4979C94.2952 51.4408 94.2952 51.4408 90.1573 50.6083C84.1168 49.3936 82.3472 49.4639 80.6077 50.989C79.7917 51.7041 80.0531 51.701 78.0979 51.013C73.1548 49.2739 67.0393 49.1674 57.181 50.6493C53.8599 51.1481 49.9857 51.6547 48.5704 51.7744C41.2165 52.3968 34.3205 53.6687 25.474 56.0355C21.7963 57.0193 20.7591 57.1329 20.7591 56.5514Z" fill="#28A8DD"/>
<path d="M97.3627 277.647C74.3003 276.662 58.2654 273.599 45.4689 267.736C43.601 266.881 43.881 267.454 41.867 260.374C38.3579 248.044 35.6911 236.871 32.834 222.536C31.3861 215.269 30.7078 212.231 27.3635 198.029C21.3616 172.546 19.0823 160.829 17.7705 148.72C17.4039 145.33 18.0861 141.179 19.1921 140.075C19.9137 139.354 20.0089 137.99 19.3777 137.403C19.09 137.135 18.94 136.615 18.8054 135.408C18.7002 134.471 18.4952 133.634 18.3243 133.442C17.9446 133.015 17.7968 131.763 17.6282 127.539C17.5532 125.673 17.4202 124.074 17.3328 123.987C17.1417 123.798 16.8068 124.277 16.8022 124.745C16.7813 127.079 15.0341 122.624 14.0232 117.66C11.4005 104.772 7.09555 91.9632 8.08555 99.995C8.43359 102.821 9.07555 105.598 10.9194 112.256C13.085 120.077 14.072 125.616 13.6311 127.478C13.0015 130.14 8.93478 114.155 6.59126 99.8051C5.99572 96.1641 5.10317 90.6944 4.60585 87.6503C3.49597 80.8501 2.46343 75.7426 1.05268 70.0745C-0.359618 64.4018 -0.3194 63.4813 1.43553 61.2503C5.0529 56.6502 15.6683 53.0748 16.8153 56.0687C17.6019 58.1213 15.2839 59.5437 8.98041 60.875C3.51685 62.0287 3.0118 62.8542 5.97716 65.7786C8.94251 68.7023 26.1414 71.3155 46.4914 71.934C82.5011 73.029 105.368 73.3179 111.813 72.7603C118.179 72.2089 118.563 72.2128 119.627 72.836C120.575 73.3904 120.575 73.3904 121.786 73.0908C122.997 72.7897 123.288 72.7974 127.51 73.2399C128.429 73.3356 128.871 73.2738 129.726 72.9271C130.675 72.5425 130.879 72.5225 131.548 72.7441C132.935 73.2043 146.153 73.0715 150.808 72.551C163.755 71.1008 179.08 67.5717 184.177 64.8659C184.777 64.547 188.719 63.5933 191.288 63.1446C193.755 62.7145 195.349 62.3345 196.534 61.8959C197.622 61.4928 197.622 61.4928 197.75 63.2079C198.319 70.8328 197.469 83.1374 195.939 89.4295C195.537 91.0797 195.065 93.713 194.361 98.2243C194.132 99.6916 193.847 101.086 193.728 101.324C193.608 101.561 193.565 101.961 193.631 102.212C193.697 102.465 193.532 104.449 193.264 106.623C191.855 118.063 190.968 129.665 189.607 154.451C188.403 176.387 187.715 186.286 186.722 195.954C186.428 198.85 186.168 201.748 185.943 204.65C185.136 215.565 183.922 225.699 181.856 238.742C181.15 243.201 181.051 244.248 180.997 247.833C180.793 261.348 175.832 269.023 166.422 270.376C165.509 270.507 163.605 270.954 162.19 271.369C150.717 274.732 138.479 276.515 121.71 277.267C108.111 277.877 104.178 277.938 97.3627 277.647ZM50.647 257.206C48.2045 247.264 46.776 242.545 45.059 238.743C43.2197 234.671 42.8021 234.132 43.0294 236.123C44.0736 245.274 46.5888 253.761 50.6842 261.945C52.8436 266.261 52.8421 266.145 50.647 257.206M46.3661 263.791C47.0792 261.136 45.9391 255.551 42.6203 245.435C40.7269 239.667 39.3324 234.649 39.0695 232.664C38.897 231.363 38.7183 231.254 37.9774 231.993C36.7886 233.18 37.1482 235.635 39.8251 244.618C40.5444 247.035 41.2366 249.792 41.3611 250.744C42.0936 256.343 45.7837 265.962 46.3661 263.791ZM113.485 234.359C117.097 231.97 116.623 225.009 112.698 222.788C109.163 220.79 107.266 225.144 108.766 231.809C109.439 234.798 111.3 235.804 113.485 234.359ZM102.839 233.833C105.532 232.454 106.427 227.853 104.739 224.059C103.075 220.318 99.7371 222.213 99.1354 227.24C99.0488 227.968 98.843 229.417 98.6791 230.46C98.0912 234.202 99.6497 235.464 102.839 233.833ZM37.2983 226.954C37.7306 223.503 36.8342 218.518 33.9377 208.243C33.1155 205.329 32.1681 201.549 31.8316 199.844C30.7326 194.269 29.0674 191.552 29.8717 196.645C30.2615 199.117 32.4651 210.398 32.94 212.357C33.2037 213.444 33.6492 216.186 33.93 218.45C34.6291 224.089 35.2425 226.323 36.4483 227.624C37.0461 228.27 37.1428 228.192 37.2983 226.954ZM96.8213 220.559C98.8376 219.473 100.896 218.978 103.383 218.979C105.297 218.981 106.74 219.178 112.21 220.185C118.884 221.415 122.809 220.49 122.345 217.793C121.297 211.684 118.185 210.343 108.632 211.883C103.058 212.781 99.0225 212.823 96.7547 212.007C94.9635 211.363 95.0725 211.368 93.743 211.865C88.9345 213.661 89.1457 219.384 94.0787 220.945C94.7423 221.155 95.3007 221.332 95.3192 221.339C95.3386 221.344 96.0146 220.994 96.8213 220.559ZM83.1113 207.884C98.1895 204.434 103.051 185.608 91.1504 176.755C83.2822 170.902 78.2665 170.57 65.4514 175.055C62.7637 175.996 61.4852 176.357 61.3445 176.216C61.2037 176.076 61.1395 176.118 61.1395 176.354C61.1395 176.542 61.0134 176.745 60.8595 176.804C60.2748 177.028 59.6104 178.342 59.571 179.351C59.5478 179.965 59.243 181.056 58.7674 182.234C53.1151 196.23 67.5536 211.444 83.1113 207.884ZM64.0097 197.11C58.0782 196.226 56.7997 191.183 61.3398 186.579C64.6385 183.235 68.4786 182.946 71.2978 185.828C76.8766 191.534 72.4603 198.37 64.0097 197.11M139.216 205.113C149.573 203.376 156.067 191.487 151.796 182.083C141.796 160.062 105.879 170.64 113.756 193.287C117.123 202.969 126.374 207.267 139.216 205.113ZM119.039 195.974C114.422 194.839 112.924 190.626 115.398 185.733C118.491 179.616 125.109 179.688 128.374 185.875C130.346 189.612 129.899 190.857 126.701 190.535C123.825 190.245 122.881 190.655 124.288 191.585C125.312 192.262 126.622 193.44 126.875 193.911C127.664 195.385 122.342 196.785 119.039 195.973M107.52 128.349C107.666 127.84 107.597 127.59 107.087 126.789C103.197 120.665 107.538 112.154 113.683 113.857C116.197 114.554 116.204 115.94 113.729 121.342C111.391 126.446 111.57 127.374 114.893 127.374C117.246 127.374 117.137 127.536 117.358 123.697C117.923 113.826 120.904 110.496 127.254 112.64C128.901 113.197 128.929 113.23 129.427 115.191C131.335 122.715 133.938 124.849 140.812 124.529C145.689 124.302 146.774 123.271 148.642 117.082C150.231 111.813 151.333 110.522 154.622 110.073C155.41 109.965 156.455 109.794 156.945 109.692C159.023 109.258 161.081 109.564 161.621 110.386C162.08 111.086 162.349 110.771 162.242 109.66C162.15 108.698 162.15 108.698 169.834 108.698C177.232 108.698 177.525 108.684 177.723 108.315C177.901 107.984 178.217 107.917 180.056 107.826C184.432 107.608 185.544 107.485 185.879 107.184C186.136 106.952 186.641 106.899 188.145 106.943C190.08 106.998 190.08 106.998 190.32 106.119C190.451 105.635 190.737 104.75 190.956 104.153C191.273 103.285 191.382 102.328 191.491 99.4089C191.642 95.415 191.781 94.1416 192.312 91.8991C192.738 90.1006 192.749 78.1072 192.328 73.4198C192.066 70.4954 186.661 69.3965 182.659 71.4553C181.998 71.795 165.971 73.6916 153.58 74.8963C141.052 76.1148 125.247 77.2724 116.762 77.5929C114.505 77.6778 113.115 77.8153 112.773 77.9883C112.325 78.2145 112.095 78.2045 111.189 77.9164C110.479 77.6917 109.448 77.5797 108.052 77.5759C106.02 77.5705 105.975 77.5604 105.99 77.121C106.012 76.5249 106.037 76.528 100.234 76.3952C53.8119 75.3241 22.7058 73.7264 5.8944 71.5471C3.93605 71.2939 3.73573 71.3 3.73573 71.6136C3.73573 72.1634 5.3383 73.6831 6.60519 74.3356C8.19924 75.1557 8.22322 75.5148 6.70264 75.7921C5.07223 76.0886 5.12096 75.8963 5.76137 79.4725C8.32918 93.8204 12.1043 97.0675 20.0738 91.7863C23.8668 89.2727 39.1808 87.2148 61.1642 86.2657C78.6896 85.5089 74.7574 86.6209 51.7376 88.9314C40.3982 90.0689 35.0677 90.8041 29.5678 91.9886C28.3697 92.2466 26.7648 92.5029 25.9999 92.5578C19.3406 93.0412 12.983 101.048 16.3257 104.742C17.3134 105.834 18.7427 106.325 21.4768 106.516C22.6888 106.6 23.7639 106.72 23.8668 106.784C23.9689 106.847 25.2489 107.117 26.7115 107.384C29.8253 107.954 30.4603 108.168 30.5995 108.7C30.6931 109.059 30.8726 109.093 32.6345 109.093C34.3886 109.093 34.5928 109.132 34.848 109.516C35.0824 109.869 35.3786 109.954 36.6455 110.035C37.791 110.109 38.245 110.223 38.4979 110.502C38.7129 110.74 39.1012 110.873 39.583 110.873C39.9945 110.873 40.3874 110.961 40.4547 111.069C40.522 111.178 41.0332 111.267 41.5916 111.267C42.3713 111.267 42.7162 111.37 43.0797 111.712C43.533 112.137 43.7255 112.16 47.4798 112.221C51.057 112.279 51.4359 112.318 51.7507 112.665C52.1088 113.061 54.0138 113.235 54.0138 112.872C54.0138 112.18 57.4309 111.604 61.8325 111.554C64.9889 111.519 66.1715 111.426 67.6681 111.099C70.1539 110.553 70.2359 110.68 68.8685 112.947C68.5405 113.49 68.1871 114.128 68.0819 114.364C67.9775 114.599 67.6487 114.911 67.3517 115.056C67.054 115.2 66.4576 115.836 66.0261 116.47C65.429 117.346 64.9997 117.735 64.2294 118.099C60.9082 119.667 58.212 122.335 59.9476 122.335C60.3931 122.335 60.9709 122.474 61.2308 122.644C61.6592 122.925 61.759 122.925 62.3027 122.644C62.6322 122.474 63.0267 122.335 63.1798 122.335C63.3337 122.335 63.8009 121.779 64.2185 121.099C65.5349 118.96 71.0109 113.885 71.7132 114.154C71.9181 114.232 72.0782 114.127 72.1834 113.843C72.3311 113.444 72.4967 113.409 74.5107 113.346C77.0638 113.266 78.7723 113.073 79.0693 112.832C79.1985 112.727 79.8103 112.862 80.6146 113.171C82.9033 114.055 83.0703 115.04 81.1081 116.08C77.6377 117.919 77.0507 121.898 79.7902 125.005C82.1507 127.683 86.1169 127.146 83.8724 124.452C79.5922 119.318 82.5908 115.024 91.6238 113.352C97.382 112.287 105.832 114.11 104.276 116.084C102.927 117.797 102.928 120.185 104.28 125.69C104.613 127.045 104.886 128.362 104.886 128.614C104.886 129.429 107.28 129.189 107.52 128.349ZM136.533 121.271C130.796 119.224 130.863 112.901 136.619 113.067C138.226 113.114 138.575 113.06 139.625 112.593C143.719 110.777 147.568 113.765 146.379 117.836C145.679 120.233 144.281 121.135 140.911 121.363C137.804 121.575 137.359 121.565 136.533 121.271ZM20.7591 56.5521C20.7591 56.3498 21.0569 55.7938 21.4219 55.3166C22.3377 54.1173 22.7383 53.288 22.7383 52.5922C22.7383 51.82 22.4746 51.9188 27.215 50.9072C37.8219 48.6446 42.3651 48.0631 50.4854 47.928C93.3153 47.2175 105.887 46.826 119.5 45.7735C122.964 45.5063 122.957 45.5047 123.909 47.0021C125.965 50.2392 120.143 52.3667 111.121 51.6763C110.25 51.6091 106.108 51.5296 101.917 51.4979C94.2952 51.4408 94.2952 51.4408 90.1573 50.6083C84.1168 49.3936 82.3472 49.4639 80.6077 50.989C79.7917 51.7041 80.0531 51.701 78.0979 51.013C73.1548 49.2739 67.0393 49.1674 57.181 50.6493C53.8599 51.1481 49.9857 51.6547 48.5704 51.7744C41.2165 52.3968 34.3205 53.6687 25.474 56.0355C21.7963 57.0193 20.7591 57.1336 20.7591 56.5521Z" fill="#3698A6"/>
<path d="M101.025 277.748C74.9778 276.356 62.5773 274.31 49.6578 269.275C44.0387 267.085 44.024 267.076 43.4501 265.195C39.9697 253.793 36.3407 239.024 33.3073 223.923C31.5431 215.14 30.9336 212.404 27.4075 197.425C18.4619 159.425 16.212 143.818 19.1905 140.431C19.9214 139.6 20.0204 138.001 19.3784 137.404C19.09 137.135 18.9399 136.615 18.8053 135.408C18.7001 134.471 18.4952 133.634 18.3243 133.442C17.9437 133.014 17.7968 131.761 17.6282 127.516C17.5214 124.85 17.4286 124.06 17.2043 123.922C16.8006 123.674 16.6026 123.852 16.5948 124.471C16.5732 126.294 14.9629 121.489 14.0232 116.802C11.1421 102.423 6.04748 89.5114 8.20537 102.056C8.56038 104.12 9.5991 108.249 11.1305 113.687C12.4415 118.339 13.1755 121.882 13.4129 124.707C14.1717 133.709 9.32917 115.619 6.80081 100.003C3.33581 78.6022 2.35354 73.5433 0.437737 67.1957C-0.389841 64.4551 0.00538538 63.0226 2.22824 60.7036C6.90367 55.8255 17.4928 53.1088 16.7163 56.9869C16.3953 58.5885 14.2722 59.597 8.89296 60.7028C3.32807 61.8473 2.76424 62.8033 5.85644 65.8536C8.29277 68.2575 21.5943 70.7688 36.9896 71.7309C39.8529 71.9101 43.1972 72.0236 60.7427 72.5371C84.3627 73.2291 106.192 73.4067 111.714 72.9534C118.136 72.4259 118.876 72.4236 119.775 72.9279C120.497 73.3333 120.679 73.3588 121.493 73.1657C122.362 72.9603 123.03 72.9904 127.675 73.4437C128.609 73.5349 128.969 73.4684 129.879 73.0383C130.812 72.5981 131.05 72.5564 131.535 72.7503C132.648 73.1935 146.337 73.0514 150.809 72.551C163.764 71.0993 179.081 67.571 184.177 64.8659C184.777 64.547 188.719 63.5933 191.288 63.1446C193.789 62.7083 195.369 62.3345 196.394 61.9376C198.131 61.265 198.541 70.4398 197.218 80.325C196.495 85.7275 196.333 86.7746 195.954 88.5399L195.275 91.7022C193.081 101.901 191.191 122.176 189.409 154.648C188.115 178.224 187.493 186.956 186.246 199.017C186.037 201.029 185.813 203.519 185.747 204.552C185.162 213.656 183.851 224.624 181.584 239.386C180.88 243.966 180.733 245.366 180.826 246.599C181.786 259.283 175.922 268.729 166.149 270.244C165.169 270.396 162.8 270.974 160.883 271.53C151.201 274.335 140.216 276.01 125.769 276.883C116.415 277.448 103.716 277.892 101.025 277.747M100.166 274.954C100.893 274.229 98.7471 273.884 89.4449 273.229C87.2136 273.072 84.2737 272.811 82.9125 272.65C75.4774 271.765 69.5861 271.715 71.7672 272.553C75.718 274.075 99.0704 276.049 100.166 274.955M52.627 264.756C52.627 264.246 49.0931 250.113 48.1983 247.043C46.547 241.381 43.6141 234.394 42.8894 234.394C42.2111 234.394 43.8933 244.008 45.5175 249.415C47.66 256.542 52.627 267.263 52.627 264.756ZM46.5168 263.925C47.2036 260.758 46.2082 255.785 42.8221 245.462C40.9604 239.788 39.5427 234.719 39.2581 232.715C39.0748 231.433 38.883 231.19 38.2704 231.469C36.5031 232.273 36.7761 235.095 39.4886 244.065C40.194 246.394 40.9063 249.196 41.0734 250.29C42.1423 257.308 45.9074 266.737 46.5168 263.925ZM113.419 234.62C116.573 232.623 117.125 228.052 114.638 224.521C110.513 218.668 106.269 224.431 108.734 232.539C109.48 234.995 111.448 235.869 113.419 234.62ZM102.839 234.03C106.267 232.27 106.843 225.548 103.835 222.388C102.037 220.5 99.3991 223.23 98.9234 227.47C98.8236 228.365 98.6566 229.467 98.5521 229.918C97.6202 233.947 99.4957 235.746 102.839 234.03ZM37.4676 226.968C37.9278 223.995 36.9633 218.419 34.4048 209.262C33.4225 205.748 32.3103 201.335 31.9337 199.456C31.0179 194.89 29.4679 191.792 29.4679 194.527C29.4679 195.907 31.6645 207.845 32.7311 212.26C33.0064 213.401 33.4581 216.158 33.7358 218.387C34.4705 224.3 34.9369 226.069 36.1288 227.459C37.0237 228.503 37.2425 228.423 37.4676 226.968ZM96.8444 220.561C100.372 218.628 103.332 218.513 111.12 220.006C121.436 221.985 125.565 218.999 120.419 213.285C118.311 210.944 116.108 210.69 108.448 211.909C103.337 212.721 98.9319 212.789 97.0656 212.085C94.7956 211.228 93.3686 211.526 91.6167 213.222C88.6204 216.123 90.6244 220.487 95.3432 221.34C95.3756 221.346 96.0516 220.995 96.8444 220.561ZM83.3533 208.029C85.5306 207.478 86.0836 207.221 89.5091 205.177C100.86 198.402 100.879 181.981 89.5439 175.453C88.7174 174.976 87.8927 174.497 87.0697 174.014C81.6317 170.816 76.4071 170.989 65.8899 174.717C63.9841 175.393 62.1758 175.94 61.8711 175.933C61.4604 175.924 61.2701 176.045 61.134 176.402C61.0335 176.667 60.8749 176.883 60.7813 176.883C60.3358 176.883 59.3574 178.651 59.3574 179.454C59.3574 179.959 59.0527 181.037 58.5763 182.217C52.8745 196.337 67.8637 211.953 83.3533 208.029ZM63.5031 196.843C58.2429 195.954 57.2459 191.207 61.397 186.82C64.6068 183.427 68.2048 183.101 71.0417 185.944C76.8302 191.744 72.2762 198.327 63.5031 196.843ZM139.528 205.244C152.102 202.747 157.202 188.944 149.566 178.079C137.961 161.567 109.395 171.17 112.812 190.435C114.855 201.95 125.738 207.983 139.528 205.244ZM119.218 195.85C113.728 194.764 112.722 188.048 117.352 183.394C121.435 179.29 127.238 181.657 129.129 188.197C129.718 190.234 129.352 190.518 126.329 190.37C122.843 190.199 122.565 190.516 124.762 192.162C126.504 193.467 127.025 194.131 126.656 194.575C125.749 195.666 121.748 196.351 119.218 195.849M119.434 148.135C120.85 148.077 122.319 147.977 122.7 147.914C123.127 147.843 123.556 147.782 123.987 147.73C124.313 147.693 124.981 147.612 125.472 147.549L127.055 147.348C127.518 147.289 127.979 147.222 128.44 147.149C128.821 147.087 129.4 146.999 129.727 146.952C130.329 146.866 132.309 146.523 135.369 145.975C148.491 143.626 157.644 139.403 167.46 131.171C167.746 130.931 168.357 130.424 168.82 130.044C169.392 129.565 169.951 129.071 170.496 128.561C170.956 128.126 171.934 127.237 172.669 126.584C173.404 125.932 174.472 124.955 175.044 124.41C177.086 122.464 179.275 120.491 181.117 118.935C181.595 118.531 182.251 117.975 182.578 117.696C183.081 117.274 183.59 116.86 184.104 116.453C184.758 115.935 185.076 115.52 185.167 115.063C185.285 114.477 185.36 114.417 185.908 114.47C186.388 114.517 186.57 114.426 186.76 114.051C186.893 113.788 187.143 113.495 187.314 113.399C187.535 113.275 187.626 112.926 187.626 112.194C187.626 111.316 187.692 111.136 188.071 110.969C188.316 110.861 188.543 110.586 188.576 110.356C188.609 110.127 188.847 109.842 189.105 109.725C189.491 109.55 189.599 109.308 189.713 108.364C189.789 107.733 189.917 107.127 189.996 107.019C190.076 106.91 190.235 106.465 190.35 106.031C190.464 105.596 190.737 104.751 190.956 104.153C191.273 103.285 191.381 102.33 191.49 99.4097C191.641 95.4158 191.78 94.1424 192.311 91.8998C192.738 90.1013 192.748 78.108 192.328 73.4206C192.065 70.4962 186.66 69.3973 182.658 71.456C181.998 71.7958 165.962 73.6932 153.579 74.8971C144.03 75.826 131.794 76.7813 123.096 77.2794C120.973 77.4006 117.811 77.5867 116.069 77.6925C111.943 77.9435 111.242 77.935 110.871 77.6284C110.655 77.4492 109.895 77.3821 108.301 77.4029C106.145 77.4315 106.042 77.4145 106.138 77.0462C106.3 76.4291 105.75 76.3527 100.134 76.2152C50.9695 75.0113 24.2155 73.6322 5.61977 71.3425C3.54618 71.0877 3.5369 71.0877 3.5369 71.5224C3.5369 72.1302 5.20057 73.7974 6.49375 74.4855C7.94008 75.2554 7.98107 75.433 6.75363 75.5998C4.79683 75.8646 4.85329 75.6067 5.72109 80.2702C8.26956 93.9663 12.5583 97.4035 20.2339 91.8998C22.5658 90.2272 35.6168 87.9754 47.6785 87.1638C52.9472 86.8086 53.9302 86.7568 60.9407 86.4595C69.0386 86.1151 70.9907 86.095 70.727 86.3591C70.4671 86.6178 63.2996 87.6233 57.2792 88.2457C39.6038 90.0712 37.251 90.3693 30.8532 91.5925C28.9482 91.9562 26.5877 92.3539 25.6077 92.4751C15.0016 93.7895 11.3556 105.943 21.3523 106.659C24.9201 106.914 30.4572 108.219 30.4572 108.805C30.4572 109.04 30.8392 109.094 32.5114 109.094C34.3909 109.094 34.5896 109.13 34.8472 109.517C35.0816 109.869 35.3778 109.954 36.6447 110.036C37.7901 110.11 38.2441 110.224 38.497 110.503C38.7121 110.741 39.1003 110.873 39.5822 110.873C39.9936 110.873 40.3866 110.961 40.4538 111.07C40.5211 111.178 41.0324 111.268 41.5908 111.268C42.3704 111.268 42.7154 111.371 43.0789 111.713C43.5321 112.137 43.7255 112.161 47.4465 112.221C50.9192 112.278 51.3833 112.325 51.7368 112.653C52.2797 113.158 53.9921 113.265 54.4361 112.821C55.1399 112.118 58.2205 111.62 61.6638 111.651C64.507 111.677 67.7399 111.373 69.1058 110.953C70.0293 110.668 68.0153 114.633 67.0276 115.043C66.7283 115.167 66.4816 115.369 66.4792 115.492C66.4676 116.187 65.2356 117.626 64.2541 118.088C55.7957 122.077 55.6457 130.75 63.9424 136.134C69.3162 139.622 70.3186 140.23 72.6203 141.395C78.039 144.14 85.1902 146.369 91.0282 147.133C91.5185 147.197 92.1419 147.29 92.4142 147.338C92.9958 147.442 94.4854 147.619 95.8784 147.749C96.5386 147.812 97.1986 147.876 97.8584 147.942C98.4021 147.997 99.669 148.066 100.674 148.097C101.679 148.126 102.54 148.189 102.587 148.237C102.702 148.352 116.142 148.27 119.434 148.135ZM20.9555 56.4525C20.9555 56.3058 21.2533 55.7938 21.6183 55.3166C22.531 54.122 22.9347 53.288 22.9347 52.6022C22.9347 52.1628 23.0438 51.9937 23.3802 51.9119C32.844 49.6029 42.3256 48.2484 49.954 48.1164C96.4221 47.3133 106.247 47.009 119.334 45.9603C122.815 45.6823 122.88 45.697 123.702 46.9905C125.824 50.3319 122.61 51.4895 111.416 51.4153C93.5341 51.2956 94.7662 51.352 90.1828 50.4315C84.1492 49.2199 82.2558 49.3033 80.4081 50.8609C79.7839 51.3867 79.7839 51.3867 77.725 50.6987C72.6103 48.9905 67.528 48.9573 56.4864 50.562C52.6757 51.1157 48.3522 51.657 46.878 51.7644C41.7416 52.1404 36.1535 53.176 27.5019 55.3537C21.9184 56.7591 20.9555 56.9213 20.9555 56.4525Z" fill="#008ECF"/>
<path d="M101.025 277.748C74.9778 276.356 62.5773 274.31 49.6578 269.275C44.0387 267.085 44.024 267.076 43.4501 265.195C39.9697 253.793 36.3407 239.024 33.3073 223.923C31.5431 215.14 30.9336 212.404 27.4075 197.425C18.4844 159.519 16.2081 143.768 19.1735 140.455C20.1573 139.355 20.9485 140.645 21.8186 144.767C26.7864 168.273 34.9052 199.048 40.9806 217.398C43.2529 224.261 42.8677 223.603 44.5283 223.464C46.25 223.32 46.2778 223.379 45.4185 225.376C43.8253 229.081 44.6118 230.958 49.6083 235.37C51.7275 237.241 51.5318 237.79 48.8812 237.409C47.0459 237.146 47.1688 236.888 47.8533 239.553C48.21 240.956 48.54 242.366 48.8433 243.781C52.33 260.506 55.8298 266.446 63.0746 267.929C85.4633 272.514 111.014 273.306 144.794 270.459C158.067 269.341 168.406 265.224 171.714 259.738C172.569 258.321 172.593 258.386 171.179 258.238C168.899 258 168.96 257.449 171.374 256.45C174.952 254.968 176.068 253.804 176.014 251.61C175.989 250.659 176.128 249.883 176.544 248.633C177.956 244.392 178.243 241.102 177.915 232.901C177.638 225.982 177.721 223.236 178.287 220.659C179.162 216.677 179.629 212.706 180.403 202.674C180.928 195.871 181.315 192.043 181.783 189.037C182.224 186.207 182.45 183.19 182.769 175.894C183.131 167.629 183.36 164.459 183.877 160.577C184.519 155.749 184.628 155.388 185.797 154.22C187.473 152.547 187.424 151.373 185.563 148.661C182.723 144.521 182.721 142.35 185.555 139.742C186.64 138.743 186.675 137.291 185.842 127.77C184.961 117.692 184.978 114.38 185.909 114.47C186.387 114.517 186.57 114.426 186.76 114.051C186.893 113.788 187.143 113.495 187.314 113.399C187.535 113.275 187.626 112.926 187.626 112.194C187.626 111.316 187.692 111.136 188.071 110.969C188.316 110.861 188.543 110.586 188.576 110.356C188.609 110.127 188.847 109.842 189.105 109.725C189.491 109.55 189.599 109.308 189.713 108.364C189.789 107.733 189.917 107.127 189.996 107.019C190.076 106.91 190.235 106.465 190.35 106.031C190.464 105.596 190.737 104.751 190.956 104.153C191.273 103.285 191.381 102.33 191.49 99.4097C191.641 95.4158 191.78 94.1424 192.311 91.8998C192.738 90.1013 192.748 78.108 192.328 73.4206C192.065 70.4962 186.66 69.3973 182.658 71.456C181.998 71.7958 165.962 73.6932 153.579 74.8971C144.03 75.826 131.794 76.7813 123.096 77.2794C120.973 77.4006 117.811 77.5867 116.069 77.6925C111.943 77.9435 111.242 77.935 110.871 77.6284C110.655 77.4492 109.895 77.3821 108.301 77.4029C106.145 77.4315 106.042 77.4145 106.138 77.0462C106.3 76.4291 105.75 76.3527 100.134 76.2152C50.9695 75.0113 24.2155 73.6322 5.61977 71.3425C3.54618 71.0877 3.5369 71.0877 3.5369 71.5224C3.5369 72.1302 5.20057 73.7974 6.49375 74.4855C7.94008 75.2554 7.98107 75.433 6.75363 75.5998C4.79683 75.8646 4.85329 75.6067 5.72109 80.2702C8.26956 93.9663 12.5583 97.4035 20.2339 91.8998C22.5658 90.2272 35.6168 87.9754 47.6785 87.1638C52.9472 86.8086 53.9302 86.7568 60.9407 86.4595C69.0386 86.1151 70.9907 86.095 70.727 86.3591C70.4671 86.6178 63.2996 87.6233 57.2792 88.2457C39.6038 90.0712 37.251 90.3693 30.8532 91.5925C28.9482 91.9562 26.5877 92.3539 25.6077 92.4751C15.0016 93.7895 11.3556 105.943 21.3523 106.659C23.0848 106.783 29.4703 107.987 30.0565 108.301C30.7379 108.665 30.5538 109.266 29.6427 109.653C28.8275 109.999 28.8275 109.999 29.6567 110.547C30.3357 110.995 30.4425 111.146 30.2491 111.379C29.8895 111.812 29.7154 111.777 23.8025 110.078C16.3729 107.943 14.7703 107.786 16.799 109.391C18.3536 110.619 18.1487 111.127 16.3226 110.574C14.6744 110.075 14.7719 109.579 15.5252 114.628C15.7116 115.878 15.857 117.234 15.8477 117.642C15.8377 118.05 15.9622 118.984 16.1223 119.718C16.8725 123.137 16.9421 125.512 16.2677 124.593C15.8005 123.956 14.6713 120.038 14.0232 116.802C11.1421 102.423 6.04748 89.5114 8.20537 102.056C8.56038 104.12 9.5991 108.249 11.1305 113.687C12.4415 118.339 13.1755 121.882 13.4129 124.707C14.1717 133.709 9.32917 115.619 6.80081 100.003C3.33581 78.6022 2.35354 73.5433 0.437737 67.1957C-0.389841 64.4551 0.00538538 63.0226 2.22824 60.7036C6.90367 55.8255 17.4928 53.1088 16.7163 56.9869C16.3953 58.5885 14.2722 59.597 8.89296 60.7028C3.32807 61.8473 2.76424 62.8033 5.85644 65.8536C8.29277 68.2575 21.5943 70.7688 36.9896 71.7309C39.8529 71.9101 43.1972 72.0236 60.7427 72.5371C84.3627 73.2291 106.192 73.4067 111.714 72.9534C118.136 72.4259 118.876 72.4236 119.775 72.9279C120.497 73.3333 120.679 73.3588 121.493 73.1657C122.362 72.9603 123.03 72.9904 127.675 73.4437C128.609 73.5349 128.969 73.4684 129.879 73.0383C130.812 72.5981 131.05 72.5564 131.535 72.7503C132.648 73.1935 146.337 73.0514 150.809 72.551C163.764 71.0993 179.081 67.571 184.177 64.8659C184.777 64.547 188.719 63.5933 191.288 63.1446C193.789 62.7083 195.369 62.3345 196.394 61.9376C198.131 61.265 198.541 70.4398 197.218 80.325C196.495 85.7275 196.333 86.7746 195.954 88.5399L195.275 91.7022C193.081 101.901 191.191 122.176 189.409 154.648C188.115 178.224 187.493 186.956 186.246 199.017C186.037 201.029 185.813 203.519 185.747 204.552C185.162 213.656 183.851 224.624 181.584 239.386C180.88 243.966 180.733 245.366 180.826 246.599C181.786 259.283 175.922 268.729 166.149 270.244C165.169 270.396 162.8 270.974 160.883 271.53C151.201 274.335 140.216 276.01 125.769 276.883C116.415 277.448 103.716 277.892 101.025 277.747M100.166 274.954C100.893 274.229 98.7471 273.884 89.4449 273.229C87.2136 273.072 84.2737 272.811 82.9125 272.65C75.4774 271.765 69.5861 271.715 71.7672 272.553C75.718 274.075 99.0704 276.049 100.166 274.955M52.627 264.756C52.627 264.246 49.0931 250.113 48.1983 247.043C46.547 241.381 43.6141 234.394 42.8894 234.394C42.2111 234.394 43.8933 244.008 45.5175 249.415C47.66 256.542 52.627 267.263 52.627 264.756ZM46.5168 263.925C47.2036 260.758 46.2082 255.785 42.8221 245.462C40.9604 239.788 39.5427 234.719 39.2581 232.715C39.0748 231.433 38.883 231.19 38.2704 231.469C36.5031 232.273 36.7761 235.095 39.4886 244.065C40.194 246.394 40.9063 249.196 41.0734 250.29C42.1423 257.308 45.9074 266.737 46.5168 263.925ZM37.4676 226.968C37.9278 223.995 36.9633 218.419 34.4048 209.262C33.4225 205.748 32.3103 201.335 31.9337 199.456C31.0179 194.89 29.4679 191.792 29.4679 194.527C29.4679 195.907 31.6645 207.845 32.7311 212.26C33.0064 213.401 33.4581 216.158 33.7358 218.387C34.4705 224.3 34.9369 226.069 36.1288 227.459C37.0237 228.503 37.2425 228.423 37.4676 226.968ZM80.9332 246.523C80.1751 246.423 79.4164 246.327 78.657 246.237C77.6771 246.119 73.9808 245.448 70.4423 244.746C63.0885 243.286 59.3095 242.703 57.1748 242.699C54.8104 242.693 54.0331 241.656 55.3835 240.309C56.3727 239.32 58.287 239.541 64.21 241.325C68.269 242.546 71.2916 243.281 73.1076 243.485C73.8733 243.571 75.3908 243.833 76.4798 244.067C78.1025 244.415 89.6739 245.858 90.8464 245.858C91.0305 245.858 91.2269 246.035 91.2842 246.253C91.3816 246.627 83.1437 246.842 80.9332 246.523M99.6388 237.682C96.9983 236.441 96.0346 234.571 95.4793 229.612C94.7298 222.913 93.6741 221.419 89.0195 220.473C87.9182 220.249 87.7526 216.658 88.7442 214.496C89.7937 212.207 92.1844 209.571 96.0594 206.43C97.1321 205.561 98.5831 204.296 99.2831 203.62C100.825 202.131 101.037 202.076 104.983 202.104C113.845 202.166 122.892 209.154 125.646 218.062C126.373 220.413 126.294 220.534 122.403 223.044C117.573 226.16 116.551 227.748 117.151 231.202C118.08 236.538 115.666 238.186 109.317 236.549C105.085 235.458 103.143 235.705 101.766 237.507C101.182 238.272 100.939 238.292 99.6388 237.682ZM113.419 234.621C116.573 232.624 117.125 228.053 114.638 224.522C110.513 218.669 106.269 224.432 108.734 232.54C109.48 234.996 111.448 235.87 113.419 234.621ZM102.839 234.031C106.267 232.271 106.843 225.549 103.835 222.389C102.037 220.501 99.3991 223.231 98.9234 227.47C98.8236 228.366 98.6566 229.467 98.5521 229.918C97.6202 233.948 99.4957 235.747 102.839 234.031ZM96.8444 220.561C100.372 218.628 103.332 218.513 111.12 220.007C121.436 221.985 125.565 219 120.419 213.285C118.311 210.945 116.108 210.691 108.448 211.909C103.337 212.722 98.9319 212.79 97.0656 212.086C94.7956 211.229 93.3686 211.527 91.6167 213.223C88.6204 216.123 90.6244 220.488 95.3432 221.341C95.3756 221.347 96.0516 220.996 96.8444 220.561ZM73.7906 210.875C59.8973 208.528 50.4142 193.118 55.9705 181.92C58.2723 177.281 60.4673 177.532 58.5755 182.218C52.4398 197.412 71.2807 214.462 86.0998 207.124C100.58 199.954 102.436 182.879 89.5432 175.454C88.7166 174.977 87.8919 174.497 87.0689 174.015C81.651 170.829 76.4442 170.992 65.9881 174.676C62.6623 175.848 62.2656 175.965 61.7814 175.919C61.3467 175.878 61.5068 175.618 62.7714 174.31C74.3946 162.294 99.546 170.894 101.11 187.419C102.479 201.886 89.0133 213.448 73.7906 210.875ZM131.409 209.36C113.927 207.6 103.374 190.862 111.572 177.898C122.489 160.635 147.636 162.912 154.862 181.817C160.23 195.859 147.365 210.968 131.409 209.36ZM139.527 205.244C152.101 202.748 157.201 188.945 149.565 178.08C137.96 161.568 109.394 171.171 112.811 190.435C114.855 201.951 125.737 207.983 139.527 205.245M119.217 195.852C113.727 194.765 112.722 188.049 117.351 183.396C121.434 179.291 127.237 181.658 129.128 188.198C129.717 190.235 129.351 190.52 126.329 190.371C122.842 190.201 122.564 190.518 124.762 192.164C126.503 193.469 127.024 194.133 126.655 194.577C125.749 195.667 121.748 196.353 119.217 195.851M63.5023 196.843C58.2421 195.954 57.2452 191.208 61.3962 186.821C64.606 183.428 68.204 183.102 71.041 185.945C76.8294 191.744 72.2754 198.328 63.5023 196.843ZM20.9563 56.4525C20.9563 56.3058 21.254 55.7938 21.6191 55.3166C22.5318 54.122 22.9355 53.288 22.9355 52.6022C22.9355 52.1628 23.0445 51.9937 23.381 51.9119C32.8448 49.6029 42.3263 48.2484 49.9548 48.1164C96.4229 47.3133 106.248 47.009 119.334 45.9603C122.816 45.6823 122.881 45.697 123.703 46.9905C125.825 50.3319 122.611 51.4895 111.417 51.4153C93.5349 51.2956 94.7669 51.352 90.1836 50.4315C84.15 49.2199 82.2566 49.3033 80.4089 50.8609C79.7847 51.3867 79.7847 51.3867 77.7258 50.6987C72.6111 48.9905 67.5288 48.9573 56.4872 50.562C52.6765 51.1157 48.353 51.657 46.8788 51.7644C41.7424 52.1404 36.1543 53.176 27.5026 55.3537C21.9192 56.7591 20.9563 56.9213 20.9563 56.4525Z" fill="#1B6F95"/>
<path d="M100.728 277.678C74.8424 276.251 61.9755 274.079 49.2169 268.98C44.0117 266.901 44.1037 266.962 43.56 265.225C40.4717 255.348 36.5039 239.171 33.3166 223.458C31.4603 214.311 30.782 211.27 27.2629 196.349C18.5439 159.375 15.9297 140.419 19.5517 140.419C20.4079 140.419 20.6608 141.151 22.2441 148.226C28.6265 176.736 35.6323 202.941 41.334 219.625C42.949 224.349 42.7061 223.992 44.2182 223.87C45.8223 223.741 45.8092 223.713 44.9916 225.564C43.5407 228.847 44.4386 231.088 48.7822 235.017C51.2279 237.23 51.2193 237.485 48.7157 237.12C46.7334 236.831 46.7651 236.8 47.2601 238.576C47.4821 239.374 48.1155 242.072 48.6678 244.572C52.3555 261.268 55.6921 266.756 63.0754 268.275C85.0797 272.798 112.691 273.556 146.849 270.572C158.709 269.536 169.589 264.763 172.282 259.417C172.876 258.238 172.849 258.189 171.544 258.027C169.497 257.771 169.524 257.617 171.791 256.643C175.178 255.185 176.23 254.074 176.27 251.912C176.287 250.929 176.481 249.913 176.901 248.607C178.233 244.452 178.546 240.468 178.166 232.516C177.876 226.465 177.949 224.028 178.5 221.344C179.439 216.774 179.908 212.682 180.807 201.192C181.083 197.659 181.569 192.812 181.886 190.421C182.493 185.839 182.789 182.475 182.971 178.068C183.486 165.649 183.864 161.215 184.777 156.837C185.024 155.648 185.19 155.333 186.029 154.445C187.882 152.49 187.819 151.472 185.644 148.179C183.067 144.277 183.066 142.877 185.644 140.063C186.842 138.754 186.914 136.43 186.048 126.695C185.407 119.477 185.405 114.783 186.04 114.63C186.312 114.565 186.64 114.3 186.768 114.043C186.897 113.784 187.143 113.494 187.314 113.399C187.531 113.278 187.626 112.933 187.626 112.266C187.626 111.378 187.67 111.291 188.22 111.1C188.546 110.986 188.813 110.754 188.813 110.582C188.813 110.412 189.025 110.175 189.283 110.057C189.848 109.801 190.303 108.574 190.138 107.751C190.018 107.153 190.274 106.027 190.956 104.153C191.272 103.288 191.38 102.323 191.49 99.4097C191.641 95.4158 191.78 94.1424 192.311 91.8999C192.738 90.1014 192.748 78.108 192.328 73.4206C192.065 70.4962 186.66 69.3973 182.658 71.4561C181.998 71.7958 165.97 73.6924 153.579 74.8971C141.079 76.1126 125.315 77.2678 116.761 77.5952C114.856 77.6678 113.13 77.7875 112.925 77.8609C112.721 77.9342 112.097 77.8686 111.54 77.7141C109.678 77.2006 108.952 77.1095 107.607 77.2215C106.332 77.3273 106.27 77.3126 106.27 76.9018C106.27 76.2485 108.171 76.3411 75.1936 75.3936C45.0868 74.5287 26.8653 73.514 11.1576 71.8275C2.82768 70.9325 2.92514 70.9271 3.72874 72.2252C4.28484 73.1233 5.31274 74.0028 6.52085 74.6145C7.71349 75.2176 7.65084 75.4068 6.1991 75.5875C4.77133 75.7651 4.78758 75.6701 5.51074 79.6795C8.1149 94.13 12.0362 97.4352 20.1821 92.045C22.8791 90.2597 34.947 88.1685 47.7775 87.2619C55.8097 86.6951 69.102 86.1885 68.8297 86.4611C68.559 86.7314 61.0513 87.6403 50.0538 88.7338C40.4423 89.6905 34.3019 90.5477 29.9622 91.5392C28.983 91.7632 27.4091 92.0149 26.4647 92.0991C14.9273 93.1285 10.5296 106.066 21.4296 106.908C22.6393 107.001 23.7615 107.131 23.9255 107.196C24.0879 107.261 25.395 107.529 26.8274 107.792C30.5152 108.47 30.8973 108.75 29.1485 109.499C28.0843 109.954 28.0843 109.951 29.1215 110.619C30.4549 111.479 29.5824 111.405 26.0006 110.358C16.0055 107.435 13.8739 107.22 16.3265 109.385C17.4843 110.406 17.4248 110.559 16.0303 110.151C15.3025 109.938 14.9165 109.907 14.7734 110.049C14.5553 110.267 15.0627 114.193 16.5021 123.423C16.9932 126.57 15.1369 121.909 14.413 118.176C12.1546 106.533 8.58438 95.4397 7.60366 97.0236C7.14733 97.7603 8.47223 104.522 10.4731 111.677C12.5134 118.968 13.4338 123.477 13.4338 126.174C13.4338 130.681 9.02137 113.028 6.91685 100.102L5.03353 88.5399C3.76122 80.7281 2.84625 76.0794 1.64974 71.3456C0.491131 66.764 0.540631 66.9378 0.298545 66.6297C-0.490362 65.6281 0.352685 62.8744 2.03723 60.9523C6.11944 56.2927 16.6011 53.3459 16.6011 56.8572C16.6011 58.4063 14.3782 59.4673 8.58438 60.6828C3.1533 61.8226 2.67532 62.774 5.87967 66.0652C6.91298 67.1262 7.33605 67.2853 12.2466 68.4652C22.1056 70.8329 32.2291 71.863 50.2518 72.3302C54.5521 72.4422 61.0103 72.6244 64.6029 72.7356C83.1523 73.3094 104.047 73.487 110.032 73.1217C117.651 72.6569 119.077 72.6422 119.921 73.0221C120.607 73.331 120.823 73.3449 121.59 73.1302C122.074 72.9951 122.58 72.9526 122.715 73.0353C122.849 73.1179 123.769 73.2592 124.759 73.3496C125.749 73.4391 126.979 73.5673 127.493 73.6345C128.454 73.7596 129.971 73.3526 130.64 72.7889C130.891 72.5766 131.078 72.5681 131.53 72.748C132.649 73.1936 146.323 73.0538 150.808 72.5511C163.763 71.0993 179.081 67.571 184.177 64.8659C184.774 64.5493 188.702 63.5972 191.288 63.1431C194.243 62.6242 195.047 62.4365 196.1 62.0211C196.881 61.7129 197.208 61.6635 197.374 61.8295C197.923 62.3778 198.03 73.6021 197.519 77.1759C197.411 77.9373 197.142 80.027 196.923 81.8208C196.704 83.6139 196.127 87.038 195.641 89.4295C194.906 93.0466 193.812 99.5086 193.448 102.374C191.834 115.077 190.706 128.973 189.51 150.893C188.044 177.755 187.513 185.353 186.151 198.919C185.89 201.528 185.617 204.596 185.548 205.738C185.057 213.744 183.701 224.968 181.481 239.377C180.821 243.657 180.697 244.943 180.697 247.522C180.697 261.225 175.753 268.763 165.844 270.167C165.033 270.282 163.535 270.643 162.514 270.97C151.883 274.369 136.362 276.513 117.553 277.178C115.757 277.242 113.263 277.377 112.011 277.478C108.707 277.744 103.576 277.835 100.728 277.678ZM100.067 275.095C102.073 274.333 98.8677 273.74 89.4364 273.13C87.2748 272.978 85.1165 272.783 82.9628 272.544C74.7682 271.608 69.6581 271.589 71.3643 272.501C74.1928 274.013 97.3943 276.109 100.067 275.095ZM52.825 265.025C52.825 261.564 46.1379 239.655 43.7928 235.431C41.1979 230.759 43.659 245.266 46.9523 254.059C49.4985 260.854 52.825 267.067 52.825 265.024M46.7125 262.963C46.8053 258.281 46.2539 255.713 43.0186 245.757C40.7509 238.78 40.1507 236.676 39.5598 233.629C39.04 230.953 38.7794 230.664 37.8118 231.694C36.5032 233.084 36.7576 235.277 39.1599 243.319C40.5768 248.065 41.0053 249.829 41.2389 251.884C41.6303 255.332 44.3922 262.877 45.8563 264.496C46.3482 265.041 46.6839 264.442 46.7125 262.963M37.463 227.955C38.2859 225.814 37.2039 218.886 34.5835 209.519C32.8394 203.284 32.2222 200.797 31.7604 198.138C31.2592 195.253 29.7789 192.588 29.3782 193.849C29.1578 194.542 31.7527 209.119 32.7249 212.655C32.8897 213.252 33.2539 215.564 33.5347 217.793C34.517 225.578 36.4521 230.586 37.4638 227.955M81.726 246.314C79.7174 246.162 74.9933 245.372 70.1461 244.378C63.9989 243.117 61.7497 242.757 58.0712 242.44C55.3 242.201 55.3 242.201 55.242 241.608C55.044 239.591 57.1431 239.587 63.9115 241.588C69.0548 243.109 70.5406 243.476 72.1254 243.61C72.888 243.675 74.1796 243.897 74.9956 244.104C76.5865 244.507 80.3957 245.048 85.1895 245.55C89.3274 245.984 89.8402 246.072 89.3467 246.266C88.9639 246.418 83.5413 246.452 81.726 246.314ZM99.6396 237.329C97.1321 236.035 96.2891 234.25 95.6874 228.956C95.2264 224.897 94.8381 223.621 93.6733 222.334C92.7993 221.368 91.3731 220.6 90.1387 220.431C85.7193 219.826 88.557 213.128 95.7802 207.114C97.1414 205.98 98.8445 204.504 99.5661 203.83C101.105 202.396 101.571 202.264 104.985 202.306C113.493 202.41 122.403 209.308 125.263 218.005C126.03 220.337 126.07 220.279 121.866 223.001C117.144 226.057 116.108 227.967 116.975 232.009C117.849 236.079 114.825 237.834 109.636 236.264C105.956 235.152 102.917 235.501 101.674 237.18C101.173 237.855 100.725 237.888 99.6396 237.329ZM112.745 235.082C118.273 232.776 116.438 220.96 110.718 222.031C107.398 222.653 106.836 232.647 110.003 234.719C111.031 235.391 111.769 235.489 112.745 235.082ZM102.701 234.166C106.395 232.582 107.06 225.029 103.761 222.136C102.171 220.743 99.5662 222.982 99.0503 226.185C98.9977 226.515 98.7742 227.868 98.5553 229.189C97.6828 234.437 98.8368 235.822 102.701 234.166ZM97.0262 220.574C100.405 218.735 103.379 218.608 110.564 219.997C117.747 221.385 122.699 220.794 122.539 218.568C122.374 216.278 121.384 213.895 120.147 212.81C117.773 210.729 115.784 210.64 105.875 212.17C101.894 212.785 97.8391 212.529 95.9264 211.541C94.7329 210.925 91.8326 212.347 90.7714 214.068C88.3567 217.987 92.968 222.785 97.0262 220.574ZM74.5168 210.67C59.673 208.34 49.6616 191.278 56.9675 180.763C59.1316 177.651 59.9654 178.388 58.5044 182.122C52.3014 197.978 71.3148 214.716 86.6776 206.923C101.282 199.515 102.323 182.306 88.6236 174.786C87.7388 174.301 86.8578 173.809 85.9807 173.311C81.4205 170.689 75.6337 171.133 65.0329 174.917C61.4303 176.203 61.3452 176.158 63.4644 174.079C71.1795 166.511 86.5407 167.595 95.2125 176.318C109.3 190.489 95.1862 213.915 74.5168 210.67ZM132.003 209.07C115.415 207.664 104.461 192.462 110.874 179.749C120.854 159.964 149.236 163.042 155.416 184.579C158.901 196.726 145.969 210.254 132.003 209.07ZM135.014 205.7C152.098 206.19 159.491 187.043 146.944 174.807C137.967 166.054 120.099 168.708 114.402 179.641C108.275 191.401 117.921 206.668 130.915 205.776C132.28 205.696 133.647 205.67 135.014 205.7ZM118.6 195.568C114.35 194.242 113.242 189.53 116.13 185.068C119.85 179.322 126.426 180.659 128.836 187.651C129.687 190.12 129.422 190.422 126.57 190.228C122.984 189.984 122.303 190.511 124.334 191.96C126.727 193.667 127.154 194.404 126.076 194.961C124.463 195.793 120.383 196.125 118.6 195.568ZM64.8017 196.853C59.4882 196.333 57.6443 193.544 59.7682 189.236C62.2122 184.279 67.74 182.665 71.0116 185.957C76.3538 191.331 72.7634 197.63 64.8017 196.853ZM21.0669 56.5421C21.0066 56.4441 21.3538 55.8356 21.8403 55.1907C22.7855 53.9343 23.1335 53.2077 23.1335 52.4895C23.1335 52.0609 23.364 51.993 28.1315 51.0177C41.5893 48.2662 39.6665 48.406 71.8276 47.8361C96.3572 47.4006 109.303 46.9125 119.923 46.0237C122.812 45.782 123.574 46.1295 124.061 47.9141C124.861 50.8424 122.533 51.2926 106.864 51.2424C93.5426 51.2007 95.6626 51.3598 87.4657 49.7821C84.0348 49.1219 81.6456 49.4585 80.4576 50.7705C79.9781 51.2987 79.7917 51.2926 78.1334 50.6956C75.1665 49.6269 73.0751 49.3304 68.5621 49.3396C64.2379 49.3473 63.708 49.4014 54.4082 50.7729C52.1769 51.1026 49.1489 51.4655 47.6793 51.5806C41.3008 52.0779 34.6879 53.3305 24.7392 55.9259C21.4791 56.7761 21.237 56.817 21.0669 56.5421Z" fill="#0C0E0E"/>
</g>
<defs>
<clipPath id="clip0_7_60">
<rect width="198" height="278" fill="white"/>
</clipPath>
</defs>
</svg>
