<svg width="512" height="179" viewBox="0 0 512 179" fill="none" xmlns="http://www.w3.org/2000/svg">
<g clip-path="url(#clip0_7_56)">
<path d="M386.892 41.423C398.893 41.423 409.985 42.694 423.44 45.421L413.852 65.619C406.397 64.164 413.255 65.424 407.622 64.879V67.789L407.984 79.605L408.164 94.879C408.346 98.696 408.346 102.515 408.529 106.333V113.97C408.529 137.971 406.529 149.243 400.529 158.515C391.802 172.153 376.71 178.88 355.256 178.88C344.346 178.88 334.893 177.244 325.073 173.425V147.607H325.075C334.895 152.697 344.712 155.06 355.075 155.06C373.438 155.06 381.257 147.607 381.257 129.787V129.242C375.803 131.968 370.347 133.06 363.076 133.06C338.53 133.06 322.891 116.878 322.891 91.242C322.891 59.421 345.984 41.422 386.891 41.422M132.91 43.24V108.149C132.91 130.514 131.273 141.24 126.365 150.514C121.818 159.424 115.817 165.059 103.455 171.242L77.454 158.878C89.818 153.06 95.817 147.971 99.635 140.149C103.636 132.149 104.91 122.876 104.91 98.513V43.241L132.91 43.24ZM466.908 40.876C494.908 40.876 512 58.514 512 87.059C512 116.334 494.183 134.697 465.817 134.697C437.815 134.697 420.542 117.06 420.542 88.697C420.544 59.239 438.363 40.876 466.908 40.876ZM186.915 41.242C201.279 41.242 210.733 45.059 214.915 52.514C217.278 56.696 218.005 62.15 218.005 73.788V130.696C205.458 132.514 189.641 133.788 178.005 133.788C154.551 133.788 144.003 125.603 144.003 107.423C144.003 87.785 158.003 78.695 192.369 75.785V69.603C192.369 64.513 189.824 62.696 182.732 62.696C172.369 62.696 160.732 65.604 149.822 71.242V49.604C162.188 43.788 174.005 41.242 186.915 41.242ZM88.365 0V129.607C74.002 132.334 63.455 133.425 52.002 133.425C17.818 133.425 0 117.97 0 88.333C0 59.787 18.91 41.243 48.183 41.243C52.728 41.243 56.183 41.605 60.365 42.696V0H88.365ZM275.643 41.242C290.007 41.242 300.371 44.514 306.555 50.878C312.373 56.877 314.19 63.422 314.19 77.424V132.333H286.189V78.515C286.189 67.788 282.553 63.786 272.553 63.786C268.735 63.786 265.281 64.15 259.643 65.786V132.333H231.643V47.604C248.188 43.241 261.824 41.242 275.643 41.242ZM193.642 94.151C175.095 95.969 169.095 98.879 169.095 106.151C169.095 111.605 172.551 114.151 180.187 114.151C184.369 114.151 188.187 113.788 193.642 112.879V94.151ZM466.546 63.423C455.453 63.423 449.087 72.333 449.087 87.786C449.089 103.242 455.453 112.151 466.36 112.151C477.09 112.151 483.454 103.241 483.454 87.786C483.454 72.514 477.271 63.423 466.546 63.423ZM50.911 63.786C36.729 63.786 28.546 72.514 28.546 87.786C28.546 102.696 36.366 110.878 50.729 110.878C53.819 110.878 56.365 110.696 60.365 110.152V65.24C57.092 64.15 54.365 63.786 50.911 63.786ZM361.621 67.966C354.896 71.786 351.439 78.696 351.439 88.513C351.439 102.515 358.35 110.514 370.713 110.514C374.531 110.514 377.623 109.786 381.258 108.696V99.061C381.258 95.788 381.078 92.15 381.078 88.333L380.897 75.424L380.714 66.151V63.968H377.804C372.351 63.786 365.987 65.24 361.622 67.967M132.91 0.15V28.878H104.91V0.149L132.91 0.15Z" fill="#092E20"/>
</g>
<defs>
<clipPath id="clip0_7_56">
<rect width="512" height="179" fill="white"/>
</clipPath>
</defs>
</svg>
