<svg width="200" height="226" viewBox="0 0 200 226" fill="none" xmlns="http://www.w3.org/2000/svg">
<g clip-path="url(#clip0_7_33)">
<path d="M188.302 57.5926L101.887 7.52814L7.54688 60.2274V165.625L101.887 218.325L192.453 165.625V55.7106L188.302 57.5926Z" fill="#202A5A"/>
<path d="M7.54688 60.2274L101.887 112.927L192.453 60.2274L101.887 7.52814L7.54688 60.2274Z" fill="#2C448A"/>
<path d="M192.453 55.7106L162.264 71.5204L161.887 78.2958L101.887 112.927V218.324L192.453 165.624V55.7106Z" fill="#283A79"/>
<path d="M7.54688 60.2274V165.625L101.887 218.325V112.927L7.54688 60.2274Z" fill="#202A5A"/>
<path d="M0 165.625V131.748L101.887 191.975V225.853L0 165.625ZM0 60.2274V79.0486L101.887 139.276V120.455L0 60.2274Z" fill="#3558A7"/>
<path d="M200 165.625V146.805L117.359 111.044L101.887 120.454V138.899L152.076 161.108L101.887 191.975V225.852L200 165.625Z" fill="#416FB5"/>
<path d="M152.076 161.108L146.037 158.85L101.887 184.446L7.54688 131.748V127.23L0 131.748L101.887 191.975L152.076 161.108ZM44.5281 67.7556L101.887 33.8782L162.264 71.5204L192.453 55.7106L101.887 0L0 60.2274L101.887 120.455L117.359 111.045L44.5281 67.7556Z" fill="#477FC1"/>
<path d="M161.887 78.2957L162.264 71.5204L101.887 33.8782L44.5281 67.7556L50.9438 71.5196L101.887 41.4071L161.887 78.2957Z" fill="#202A5A"/>
</g>
<defs>
<clipPath id="clip0_7_33">
<rect width="200" height="226" fill="white"/>
</clipPath>
</defs>
</svg>
