<svg width="170" height="230" viewBox="0 0 170 230" fill="none" xmlns="http://www.w3.org/2000/svg">
<g clip-path="url(#clip0_7_3)">
<path d="M54.821 177.8C54.821 177.8 46.0567 182.902 61.0586 184.628C79.2333 186.704 88.5215 186.406 108.55 182.611C108.55 182.611 113.816 185.916 121.169 188.779C76.2716 208.042 19.5553 187.663 54.821 177.8ZM49.3345 152.664C49.3345 152.664 39.5044 159.948 54.5175 161.502C73.9321 163.507 89.2639 163.671 115.795 158.557C115.795 158.557 119.464 162.281 125.234 164.318C70.9491 180.208 10.4855 165.571 49.3345 152.664Z" fill="#5382A1"/>
<path d="M95.5865 110.024C106.65 122.774 92.6799 134.248 92.6799 134.248C92.6799 134.248 120.77 119.732 107.87 101.554C95.8209 84.6028 86.5805 76.1792 136.602 47.1394C136.602 47.1394 58.0849 66.7698 95.5865 110.024Z" fill="#E76F00"/>
<path d="M154.968 196.392C154.968 196.392 161.454 201.741 147.825 205.88C121.909 213.739 39.96 216.112 17.1946 206.193C9.01133 202.63 24.3578 197.684 29.1849 196.646C34.2191 195.553 37.0965 195.757 37.0965 195.757C27.9955 189.339 -21.7281 208.359 11.8396 213.805C103.383 228.666 178.713 207.114 154.968 196.392ZM59.0352 126.62C59.0352 126.62 17.3513 136.531 44.2744 140.129C55.6418 141.653 78.3029 141.308 99.4115 139.538C116.662 138.082 133.985 134.984 133.985 134.984C133.985 134.984 127.902 137.592 123.501 140.6C81.171 151.744 -0.602969 146.56 22.9387 135.16C42.848 125.527 59.0352 126.62 59.0352 126.62ZM133.813 168.46C176.844 146.077 156.948 124.567 143.061 127.465C139.657 128.174 138.14 128.788 138.14 128.788C138.14 128.788 139.403 126.807 141.817 125.95C169.289 116.281 190.417 154.465 132.948 169.588C132.948 169.588 133.614 168.993 133.813 168.46Z" fill="#5382A1"/>
<path d="M107.87 0.246606C107.87 0.246606 131.701 24.1108 85.2669 60.8051C48.0323 90.2411 76.7763 107.024 85.2517 126.2C63.5169 106.57 47.5661 89.2898 58.2675 73.2071C73.9732 49.5976 117.485 38.1521 107.87 0.246606Z" fill="#E76F00"/>
<path d="M63.2639 229.113C104.568 231.76 167.995 227.644 169.497 208.08C169.497 208.08 166.609 215.497 135.361 221.387C100.107 228.028 56.6273 227.253 30.8384 222.996C30.8391 222.996 36.117 227.37 63.2639 229.113Z" fill="#5382A1"/>
</g>
<defs>
<clipPath id="clip0_7_3">
<rect width="170" height="230" fill="white"/>
</clipPath>
</defs>
</svg>
