<svg width="191" height="190" viewBox="0 0 191 190" fill="none" xmlns="http://www.w3.org/2000/svg">
<g clip-path="url(#clip0_7_53)">
<path d="M94.6912 0.0536499C46.3205 0.0536499 49.3406 21.0021 49.3406 21.0021L49.3944 42.7053H95.5537V49.2212H31.0606C31.0606 49.2212 0.108154 45.7155 0.108154 94.4561C0.108154 143.198 27.1242 141.47 27.1242 141.47H43.2473V118.851C43.2473 118.851 42.3781 91.8713 69.8321 91.8713H115.614C115.614 91.8713 141.335 92.2864 141.335 67.0454V25.311C141.335 25.311 145.242 0.0536499 94.6912 0.0536499ZM69.239 14.6486C70.3297 14.6476 71.41 14.8615 72.4179 15.2779C73.4259 15.6943 74.3417 16.3051 75.113 17.0754C75.8843 17.8457 76.4959 18.7603 76.9129 19.7668C77.3298 20.7734 77.544 21.8523 77.543 22.9416C77.544 24.0309 77.3298 25.1097 76.9129 26.1163C76.4959 27.1229 75.8843 28.0375 75.113 28.8078C74.3417 29.578 73.4259 30.1888 72.4179 30.6052C71.41 31.0217 70.3297 31.2355 69.239 31.2345C68.1482 31.2355 67.0679 31.0217 66.06 30.6052C65.0521 30.1888 64.1362 29.578 63.3649 28.8078C62.5936 28.0375 61.982 27.1229 61.565 26.1163C61.1481 25.1097 60.934 24.0309 60.9349 22.9416C60.934 21.8523 61.1481 20.7734 61.565 19.7668C61.982 18.7603 62.5936 17.8457 63.3649 17.0754C64.1362 16.3051 65.0521 15.6943 66.06 15.2779C67.0679 14.8615 68.1482 14.6476 69.239 14.6486Z" fill="url(#paint0_linear_7_53)"/>
<path d="M96.0648 189.349C144.436 189.349 141.415 168.4 141.415 168.4L141.362 146.698H95.2016V140.182H159.695C159.695 140.182 190.647 143.688 190.647 94.9456C190.647 46.2042 163.631 47.9329 163.631 47.9329H147.508V70.5503C147.508 70.5503 148.377 97.5303 120.923 97.5303H75.1413C75.1413 97.5303 49.4198 97.1153 49.4198 122.357V164.092C49.4198 164.092 45.514 189.349 96.0641 189.349M121.516 174.755C120.426 174.756 119.345 174.542 118.337 174.126C117.329 173.71 116.414 173.099 115.642 172.329C114.871 171.558 114.259 170.644 113.842 169.637C113.425 168.63 113.211 167.552 113.212 166.462C113.211 165.373 113.425 164.294 113.842 163.287C114.259 162.281 114.871 161.366 115.642 160.596C116.413 159.825 117.329 159.214 118.337 158.798C119.345 158.382 120.425 158.168 121.516 158.169C122.607 158.168 123.687 158.381 124.695 158.798C125.703 159.214 126.619 159.825 127.39 160.595C128.162 161.366 128.773 162.28 129.19 163.287C129.607 164.293 129.821 165.372 129.82 166.462C129.821 167.551 129.607 168.63 129.19 169.636C128.773 170.643 128.162 171.557 127.39 172.328C126.619 173.098 125.703 173.709 124.695 174.125C123.687 174.542 122.607 174.756 121.516 174.755Z" fill="url(#paint1_linear_7_53)"/>
</g>
<defs>
<linearGradient id="paint0_linear_7_53" x1="1831.18" y1="1702.65" x2="11261.2" y2="11051.1" gradientUnits="userSpaceOnUse">
<stop stop-color="#387EB8"/>
<stop offset="1" stop-color="#366994"/>
</linearGradient>
<linearGradient id="paint1_linear_7_53" x1="2752.08" y1="2958.28" x2="12879.5" y2="12544.8" gradientUnits="userSpaceOnUse">
<stop stop-color="#FFE052"/>
<stop offset="1" stop-color="#FFC331"/>
</linearGradient>
<clipPath id="clip0_7_53">
<rect width="191" height="190" fill="white"/>
</clipPath>
</defs>
</svg>
