<svg width="512" height="192" viewBox="0 0 512 192" fill="none" xmlns="http://www.w3.org/2000/svg">
<g clip-path="url(#clip0_7_58)">
<path d="M292.533 13.2949L293.657 14.0449C306.869 22.7699 316.342 34.7359 322.574 49.1949C324.07 51.4379 323.073 52.6849 320.081 53.4319L315.018 54.7279C303.571 57.6769 294.488 60.1569 283.191 63.1059L276.748 64.7839C274.428 65.3579 273.788 65.1169 271.32 62.3069L270.972 61.9079C267.453 57.9199 264.817 55.2559 260.155 52.8779L259.256 52.4349C243.551 44.7079 228.345 46.9509 214.136 56.1749C197.184 67.1429 188.459 83.3469 188.708 103.539C188.958 123.481 202.668 139.934 222.362 142.676C239.313 144.92 253.522 138.937 264.74 126.224C266.984 123.481 268.978 120.49 271.47 117H223.36C218.125 117 216.879 113.76 218.624 109.522L219.488 107.487C222.692 100.033 227.661 89.3189 230.888 83.1929L231.592 81.8739C232.454 80.3799 234.204 78.3609 237.569 78.3609H317.793C321.396 66.9459 327.242 56.1599 335.039 45.9539C353.237 22.0229 375.174 9.55788 404.839 4.32388C430.266 -0.164123 454.198 2.32888 475.885 17.0369C495.579 30.4979 507.794 48.6969 511.035 72.6269C515.272 106.281 505.55 133.702 482.367 157.135C465.914 173.837 445.722 184.307 422.538 189.043C415.808 190.29 409.077 190.539 402.596 191.287C379.911 190.788 359.22 184.307 341.77 169.35C329.497 158.74 321.043 145.702 316.842 130.522C313.894 136.47 310.388 142.126 306.372 147.412C288.423 171.095 264.991 185.802 235.326 189.792C210.896 193.032 188.211 188.295 168.268 173.338C149.821 159.378 139.351 140.931 136.608 117.998C133.368 90.8249 141.345 66.3949 157.798 44.9569C175.498 21.7729 198.93 7.06588 227.598 1.83088C250.597 -2.32912 272.635 0.235877 292.534 13.2949M411.12 49.0169L410.322 49.1949C387.139 54.4299 372.182 69.1369 366.698 92.5699C362.21 112.014 371.683 131.708 389.632 139.685C403.342 145.668 417.053 144.92 430.265 138.189C449.959 127.969 460.678 112.014 461.925 90.5759C461.675 87.3359 461.675 84.8419 461.176 82.3489C456.74 57.9479 434.512 44.0249 411.12 49.0169ZM116.416 94.5639C117.413 94.5639 117.912 95.3119 117.912 96.3089L117.413 102.292C117.413 103.289 116.416 104.037 115.668 104.037L61.324 103.788C60.327 103.788 60.078 103.04 60.576 102.292L64.066 96.0599C64.565 95.3119 65.562 94.5639 66.559 94.5639H116.416ZM121.9 71.6299C122.897 71.6299 123.396 72.3779 123.147 73.1259L121.152 79.1089C120.903 80.1059 119.906 80.6039 118.909 80.6039L0.996963 80.8539C-3.70145e-05 80.8539 -0.249037 80.3549 0.248963 79.6069L5.48396 72.8769C5.98296 72.1289 7.22896 71.6299 8.22596 71.6299H121.9ZM134.863 48.6959C135.86 48.6959 136.109 49.4439 135.611 50.1919L131.373 56.6729C130.874 57.4209 129.628 58.1689 128.88 58.1689L38.64 57.9189C37.642 57.9189 37.393 57.4209 37.891 56.6729L43.126 49.9429C43.625 49.1949 44.871 48.6959 45.868 48.6959H134.863Z" fill="#00ACD7"/>
</g>
<defs>
<clipPath id="clip0_7_58">
<rect width="512" height="192" fill="white"/>
</clipPath>
</defs>
</svg>
