<svg width="192" height="384" viewBox="0 0 192 384" fill="none" xmlns="http://www.w3.org/2000/svg">
<g clip-path="url(#clip0_7_42)">
<path d="M163.536 2.16675C157.559 5.6775 147.549 15.7635 135.595 30.3315V31.2277L146.054 50.5777L146.578 50.9512C154.273 39.969 162.042 30.033 169.961 21.591C170.559 20.9182 170.857 20.6197 170.857 20.6197C170.559 20.9182 170.26 21.2917 169.961 21.591C167.421 24.4297 159.651 33.3945 147.997 51.3247L149.341 51.6232C149.341 51.6232 176.61 48.9338 189.759 46.6927L190.506 46.02C194.689 22.5615 186.397 11.8042 186.397 11.8042C186.397 11.8042 175.937 -5.0805 163.536 2.16675Z" fill="url(#paint0_linear_7_42)"/>
<path d="M114.304 104.367C117.665 98.1668 121.028 92.0408 124.389 86.1383C127.901 80.0123 131.486 74.0355 135.147 68.283C135.371 67.9845 135.596 67.611 135.745 67.2375C139.226 61.7235 142.838 56.2932 146.578 50.9512L135.596 30.2565C134.774 31.2278 133.952 32.274 133.13 33.3195C129.992 37.2795 126.705 41.463 123.343 45.9458C119.366 51.2573 115.48 56.6371 111.689 62.0828C107.917 67.4773 104.231 72.9315 100.632 78.4433C97.494 83.2995 94.2818 88.2307 91.1445 93.3855C90.9945 93.609 90.9195 93.759 90.7703 93.9832V94.8045L104.442 121.924L105.04 122.148C108.103 116.171 111.166 110.195 114.304 104.367Z" fill="url(#paint1_linear_7_42)"/>
<path d="M54.7613 237.124C57.2265 230.699 59.841 224.199 62.4563 217.625C64.9958 211.349 67.536 204.999 70.2263 198.649C72.8408 192.298 75.6045 185.949 78.369 179.524C81.2078 173.024 84.0465 166.525 86.9603 160.1C89.874 153.749 92.7878 147.399 95.7758 141.124C96.8412 138.843 97.9371 136.577 99.063 134.325C100.931 130.44 102.873 126.555 104.741 122.745C104.816 122.522 104.966 122.372 105.04 122.148L90.7703 93.9832L90.0983 95.1037C86.811 100.557 83.4488 106.085 80.2365 111.764C76.9353 117.541 73.7225 123.369 70.599 129.245C67.9095 134.251 65.37 139.256 62.829 144.336C62.3063 145.382 61.8585 146.354 61.3358 147.399C58.3593 153.5 55.5443 159.678 52.8938 165.927C50.0543 172.651 47.5148 179.075 45.2738 185.202C43.779 189.236 42.5093 193.046 41.2388 196.782C40.2583 199.934 39.312 203.097 38.4 206.27C36.2656 213.634 34.4459 221.087 32.946 228.607L33.171 229.504L46.842 256.697L47.2905 256.922C49.158 251.841 51.1005 246.761 53.118 241.531C53.6408 240.037 54.2393 238.618 54.7613 237.124Z" fill="url(#paint2_linear_7_42)"/>
<path d="M32.7975 229.578C31.0042 238.618 29.7337 247.657 29.0617 256.623C29.0617 256.921 28.9867 257.22 28.9867 257.593C24.504 250.422 12.5512 243.474 12.5512 243.474C21.1425 255.875 27.642 268.202 28.6132 280.305C24.0562 281.276 17.7802 279.856 10.4595 277.242C18.0045 284.19 23.682 286.132 25.9237 286.655C18.9757 287.104 11.7292 291.885 4.40774 297.338C15.0907 293.005 23.6827 291.287 29.883 292.632C20.0962 320.349 10.3095 350.979 0.448486 383.402C3.43649 382.506 5.22974 380.488 6.27599 377.725C7.99349 371.822 19.6485 333.273 37.8022 282.546C38.325 281.127 38.8485 279.633 39.3712 278.213C39.5212 277.84 39.6697 277.391 39.8197 277.018C41.7622 271.714 43.7047 266.26 45.7957 260.731C46.2442 259.462 46.767 258.191 47.2155 256.921V256.846L32.946 228.607C32.946 228.981 32.871 229.28 32.7967 229.579" fill="url(#paint3_linear_7_42)"/>
<path d="M147.998 51.399C144.785 56.3302 141.273 61.9328 137.463 68.283C137.239 68.5823 137.09 68.9557 136.865 69.2542C133.303 75.2476 129.841 81.2999 126.481 87.4088C123.108 93.5136 119.821 99.6652 116.62 105.862C113.467 111.917 110.403 118.019 107.43 124.165L108.103 124.464L142.842 120.729L143.664 120.131C154.198 115.275 158.904 110.867 163.462 104.517C164.716 102.722 165.936 100.904 167.122 99.063C170.858 93.2355 174.518 86.8853 177.731 80.5358C180.869 74.409 183.633 68.283 185.799 62.8298C187.144 59.3183 188.264 56.106 189.012 53.2673C189.684 50.727 190.207 48.336 190.58 46.095C176.536 48.5603 159.278 50.8763 147.997 51.399" fill="url(#paint4_linear_7_42)"/>
<path d="M106.085 127.079C104.89 129.619 103.62 132.233 102.35 134.849C101.005 137.687 99.5857 140.676 98.2409 143.664C97.5689 145.158 96.8219 146.727 96.1492 148.221C93.9832 152.853 91.8907 157.634 89.6497 162.565C86.8599 168.843 84.1206 175.144 81.4319 181.466C78.7424 187.742 76.0529 194.167 73.3634 200.891C70.6842 207.414 68.0691 213.963 65.5184 220.538C63.1282 226.59 60.7379 232.716 58.3469 239.141C58.1969 239.44 58.1227 239.738 57.9734 240.038C55.5832 246.388 53.2514 252.848 50.7854 259.496C50.7104 259.646 50.5777 260.035 50.5027 260.184L51.0187 260.299L61.4099 259.181L61.9964 258.938C61.7722 258.863 61.6342 258.565 61.4099 258.491C75.1567 256.772 93.4597 246.462 105.338 233.762C110.792 227.934 115.723 220.987 120.355 212.919C123.791 206.867 126.929 200.218 129.992 192.822C132.682 186.397 135.222 179.375 137.687 171.83C134.549 173.472 130.888 174.743 126.929 175.565C126.256 175.714 125.509 175.863 124.762 176.012C124.015 176.162 123.268 176.237 122.596 176.386C135.446 171.455 143.515 161.893 149.416 150.239C146.054 152.554 140.526 155.543 133.951 157.037C133.055 157.261 132.159 157.41 131.188 157.559C130.963 157.559 130.739 157.634 130.515 157.634C134.998 155.767 138.733 153.674 142.02 151.209C142.693 150.686 143.365 150.164 144.037 149.566C145.009 148.67 145.98 147.773 146.876 146.876C147.474 146.279 147.997 145.681 148.594 145.009C149.908 143.454 151.107 141.806 152.18 140.078C152.554 139.555 152.853 138.957 153.226 138.434C153.675 137.612 154.048 136.791 154.422 135.969C156.214 132.383 157.634 129.17 158.755 126.332C159.352 124.912 159.801 123.642 160.249 122.372C160.399 121.924 160.548 121.401 160.772 120.953C161.22 119.608 161.593 118.412 161.893 117.293C162.24 116.065 162.514 114.817 162.715 113.557C162.266 113.93 161.818 114.229 161.22 114.602C157.335 116.918 150.686 119.01 145.307 119.981C144.56 120.131 144.037 120.206 143.44 120.355C143.489 120.305 131.507 121.572 107.495 124.155C107.345 124.305 106.459 126.182 106.085 127.079Z" fill="url(#paint5_linear_7_42)"/>
<path d="M49.3822 262.973C47.5147 268.128 45.5722 273.432 43.7047 278.811C43.7047 278.886 43.6297 278.961 43.6297 279.035C43.3304 279.782 43.1062 280.529 42.8077 281.351C41.5379 285.011 40.4167 288.224 37.8772 295.695C42.0607 297.638 45.4222 302.643 48.6352 308.396C48.3359 302.493 45.8707 296.89 41.1644 292.632C61.8584 293.528 79.7137 288.299 88.9027 273.208C89.7383 271.837 90.4867 270.414 91.1437 268.949C86.9602 274.254 81.7312 276.494 72.0187 275.972C86.4375 269.547 93.6089 263.346 100.034 253.111C101.624 250.501 103.119 247.835 104.517 245.117C91.8907 258.042 77.3227 261.703 62.0077 258.938L50.5027 260.209C50.1292 261.03 49.7557 262.001 49.3822 262.973Z" fill="url(#paint6_linear_7_42)"/>
</g>
<defs>
<linearGradient id="paint0_linear_7_42" x1="1053.39" y1="3276.39" x2="8977.08" y2="639.078" gradientUnits="userSpaceOnUse">
<stop stop-color="#F69923"/>
<stop offset="0.3123" stop-color="#F79A23"/>
<stop offset="0.8383" stop-color="#E97826"/>
</linearGradient>
<linearGradient id="paint1_linear_7_42" x1="-12055.8" y1="36297.3" x2="15008.9" y2="14889.1" gradientUnits="userSpaceOnUse">
<stop offset="0.3233" stop-color="#9E2064"/>
<stop offset="0.6302" stop-color="#C92037"/>
<stop offset="0.7514" stop-color="#CD2335"/>
<stop offset="1" stop-color="#E97826"/>
</linearGradient>
<linearGradient id="paint2_linear_7_42" x1="-5737.72" y1="27861.6" x2="20618.6" y2="16796.1" gradientUnits="userSpaceOnUse">
<stop offset="0.3233" stop-color="#9E2064"/>
<stop offset="0.6302" stop-color="#C92037"/>
<stop offset="0.7514" stop-color="#CD2335"/>
<stop offset="1" stop-color="#E97826"/>
</linearGradient>
<linearGradient id="paint3_linear_7_42" x1="-856.136" y1="12203.5" x2="10867" y2="9908.71" gradientUnits="userSpaceOnUse">
<stop stop-color="#282662"/>
<stop offset="0.09548" stop-color="#662E8D"/>
<stop offset="0.7882" stop-color="#9F2064"/>
<stop offset="0.9487" stop-color="#CD2032"/>
</linearGradient>
<linearGradient id="paint4_linear_7_42" x1="-10684.1" y1="36387" x2="4077.59" y2="748.883" gradientUnits="userSpaceOnUse">
<stop offset="0.3233" stop-color="#9E2064"/>
<stop offset="0.6302" stop-color="#C92037"/>
<stop offset="0.7514" stop-color="#CD2335"/>
<stop offset="1" stop-color="#E97826"/>
</linearGradient>
<linearGradient id="paint5_linear_7_42" x1="-3863.45" y1="27657.9" x2="19552.8" y2="-1735.29" gradientUnits="userSpaceOnUse">
<stop offset="0.3233" stop-color="#9E2064"/>
<stop offset="0.6302" stop-color="#C92037"/>
<stop offset="0.7514" stop-color="#CD2335"/>
<stop offset="1" stop-color="#E97826"/>
</linearGradient>
<linearGradient id="paint6_linear_7_42" x1="-1336.17" y1="12430.2" x2="7572.77" y2="-8759.62" gradientUnits="userSpaceOnUse">
<stop stop-color="#282662"/>
<stop offset="0.09548" stop-color="#662E8D"/>
<stop offset="0.7882" stop-color="#9F2064"/>
<stop offset="0.9487" stop-color="#CD2032"/>
</linearGradient>
<clipPath id="clip0_7_42">
<rect width="192" height="384" fill="white"/>
</clipPath>
</defs>
</svg>
