<svg width="475" height="129" viewBox="0 0 475 129" fill="none" xmlns="http://www.w3.org/2000/svg">
<g clip-path="url(#clip0_7_24)">
<path d="M251.552 32.1275C266.08 32.1275 280.342 43.6215 280.342 64.3618V64.6263C280.342 85.2347 266.212 96.8595 251.552 96.8595C241.252 96.8595 234.781 91.7079 230.423 85.8955V107.825C230.431 109.68 229.713 111.465 228.423 112.797C227.133 114.129 225.373 114.904 223.519 114.955L223.292 114.959C219.462 114.959 216.293 111.788 216.293 107.957V39.526C216.16 35.695 219.33 32.5238 223.16 32.392H223.292C225.146 32.384 226.93 33.102 228.262 34.3925C229.594 35.683 230.368 37.4435 230.42 39.2977L230.423 39.526V43.7533C235.045 37.2801 241.516 32.1275 251.552 32.1275ZM439.607 31.9958C449.484 31.9958 455.907 36.9859 460.515 43.3143L460.736 43.6206V39.3933L460.74 39.1659C460.79 37.3519 461.533 35.626 462.815 34.3425C464.097 33.0589 465.822 32.3152 467.636 32.264L467.868 32.2602H467.999C471.886 32.3902 475.008 35.4416 475.004 39.2977L474.999 39.526V82.857C474.999 93.293 472.225 101.088 467.075 106.239C461.528 111.92 452.812 114.562 441.588 114.562C433.268 114.562 425.081 112.713 417.553 109.013C415.176 108.221 413.591 105.843 413.591 103.334C413.723 100.03 416.364 97.5203 419.665 97.5203C420.59 97.5203 421.382 97.653 422.175 98.0493C427.985 101.351 434.588 102.936 441.192 102.936C453.209 102.936 460.077 97.124 460.736 85.8955C456.379 91.5752 449.908 96.7278 439.607 96.7278C425.094 96.7278 411.1 85.334 410.822 65.1088L410.818 64.4935V64.23C410.818 43.4888 425.081 31.9958 439.607 31.9958ZM383.216 32.392C397.216 32.392 405.271 41.7719 405.271 56.1716V89.5938C405.403 93.4248 402.366 96.4633 398.535 96.596H398.272C394.442 96.7278 391.273 93.5575 391.14 89.7265V60.5307C391.14 50.8873 386.387 45.3384 377.802 45.3384C369.615 45.3384 363.804 51.1509 363.804 60.7952V89.7265C363.807 90.6643 363.626 91.5936 363.269 92.4607C362.912 93.3278 362.387 94.1157 361.724 94.7788C361.061 95.4419 360.273 95.9672 359.406 96.3243C358.54 96.6814 357.611 96.8633 356.673 96.8595C355.736 96.8635 354.807 96.6817 353.94 96.3246C353.073 95.9675 352.285 95.4423 351.622 94.7791C350.959 94.116 350.434 93.3281 350.077 92.4609C349.72 91.5937 349.538 90.6644 349.542 89.7265L349.673 39.6578C349.542 35.8268 352.711 32.6565 356.54 32.5238H356.673C358.527 32.5158 360.311 33.234 361.643 34.5246C362.975 35.8153 363.75 37.5761 363.801 39.4304L363.804 39.6578V42.5645C368.03 35.9586 375.425 32.1275 383.216 32.392ZM186.711 32.2602C193.578 32.392 200.182 34.1099 206.256 37.2801C208.369 38.3372 209.689 40.3186 209.689 42.6963C209.689 45.8665 207.048 48.5087 203.879 48.5087H203.747C202.822 48.5087 201.898 48.2451 200.973 47.8488C196.483 45.3384 191.598 43.886 186.447 43.6215C180.901 43.6215 177.731 46.2628 177.731 49.6984V49.962C177.731 54.5856 184.466 56.4352 191.729 58.8129L192.325 58.9967L192.923 59.1841C193.622 59.405 194.324 59.637 195.024 59.8802L195.624 60.0918C203.513 62.9196 211.01 67.3826 211.01 76.9119V77.1764C211.01 90.2546 200.842 96.7278 188.031 96.7278C179.58 96.596 171.26 94.0856 164.261 89.3302C162.545 88.2722 161.487 86.4235 161.62 84.4421C161.62 81.2719 164.128 78.6297 167.297 78.6297H167.43C168.487 78.6297 169.544 78.8933 170.468 79.4223C175.75 83.1206 181.957 85.102 188.296 85.3665C194.371 85.3665 197.936 82.7243 197.936 78.6288V78.3652C197.936 73.4771 191.333 71.892 184.07 69.6461C183.31 69.4262 182.543 69.1988 181.774 68.9594L181.197 68.7784C172.923 66.1446 164.657 62.0667 164.657 51.4154V51.1509C164.657 39.3933 174.43 32.2602 186.711 32.2602ZM335.279 32.5238C337.133 32.5158 338.917 33.234 340.249 34.5246C341.581 35.8153 342.355 37.5761 342.406 39.4304L342.41 39.6578V89.7265C342.41 93.6893 339.241 96.7278 335.279 96.7278C331.317 96.7278 328.28 93.5575 328.28 89.7265V39.6578C328.148 35.8268 331.317 32.6565 335.147 32.5238H335.279ZM322.601 38.3381V39.3942C322.601 42.829 320.224 45.7356 316.923 46.2637C306.754 47.9815 299.886 56.8324 299.886 69.119V89.5947C299.886 93.5575 296.717 96.5969 292.756 96.5969C289.001 96.5969 285.881 93.6763 285.761 89.952L285.756 89.7265V89.5947L285.889 39.526C285.756 35.6959 288.926 32.5247 292.756 32.393H292.888C294.742 32.385 296.526 33.103 297.858 34.3934C299.19 35.6839 299.964 37.4444 300.015 39.2986L300.019 39.5269V42.9607C300.679 37.6773 309.395 32.393 315.602 32.393C319.168 32.1285 322.338 34.7706 322.601 38.3381ZM248.383 44.5468C238.743 44.5468 230.291 52.6051 230.291 64.3627V64.6272C230.291 76.5165 238.742 84.4431 248.383 84.4431C258.023 84.4431 266.08 76.9128 266.08 64.6272V64.3627C266.08 52.3406 258.023 44.5468 248.383 44.5468ZM442.908 44.415C433.367 44.415 425.378 52.0492 425.215 63.8606L425.212 64.2309V64.4945C425.212 76.781 433.135 84.4431 442.908 84.4431C452.581 84.4431 460.96 76.5481 461.001 64.8573L461.001 64.4954V64.2309C461.001 52.4724 452.549 44.415 442.908 44.415ZM342.543 15.0865V15.3501C342.547 16.2881 342.365 17.2175 342.008 18.0848C341.651 18.9521 341.126 19.7401 340.463 20.4034C339.8 21.0666 339.012 21.5919 338.145 21.9491C337.278 22.3062 336.349 22.488 335.411 22.4841C334.474 22.488 333.545 22.3062 332.678 21.9491C331.811 21.5919 331.023 21.0666 330.36 20.4034C329.697 19.7401 329.172 18.9521 328.815 18.0848C328.458 17.2175 328.276 16.2881 328.28 15.3501C328.272 13.4952 328.99 11.7108 330.28 10.3784C331.57 9.04593 333.329 8.27121 335.183 8.21985L335.411 8.21613C339.241 8.08435 342.41 11.2546 342.543 15.0865ZM19.5224 17.9923C44.8774 -6.57896 85.4212 -5.91911 109.984 19.5774C112.758 15.8791 115.135 11.7836 116.851 7.55628C124.907 32.1275 129.793 52.7369 127.944 68.7218C127.02 82.1962 121.737 95.1426 113.021 105.447C90.3067 132.397 49.8964 135.831 22.9569 113.109L22.4382 112.649L22.3483 112.586C22.0384 112.367 21.7534 112.114 21.4985 111.832L21.427 111.749L20.5791 110.996C19.7868 110.316 18.9945 109.636 18.2848 108.874L17.9378 108.485C-6.62582 83.1215 -5.8326 42.5645 19.5224 17.9923ZM29.0317 103.994C26.6539 102.144 23.2203 102.408 21.3714 104.786C19.7599 106.859 19.7534 109.735 21.3537 111.665L21.427 111.749L22.4382 112.649L22.5375 112.716C24.8253 114.224 27.898 113.929 29.6783 111.835L29.823 111.656C31.672 109.278 31.2768 105.843 29.0317 103.994ZM116.19 14.1622C109.587 28.0339 93.2114 38.6017 79.0801 41.9046C73.6371 43.1983 68.4789 43.5241 63.445 43.7793L61.9384 43.8554C55.1743 44.1941 48.6068 44.5681 41.84 47.189C13.8428 57.8895 14.3716 91.1808 29.6903 98.7101L30.6144 99.2391C30.6144 99.2391 40.7517 97.2224 51.2156 94.5014L52.1527 94.2554L52.6221 94.1311L53.5591 93.8805C57.9306 92.7018 62.2297 91.4183 65.743 90.1237C83.9674 83.386 104.04 66.7404 110.644 47.4535C107.21 67.5329 89.9096 86.9525 72.6101 95.8044C63.3662 100.56 56.2347 101.617 41.0477 106.901C39.931 107.3 38.8296 107.74 37.7459 108.222L38.0075 108.186L38.5279 108.118L39.0456 108.053C42.3966 107.637 45.4052 107.429 45.4052 107.429C66.9315 106.372 100.739 113.506 116.454 92.5014C132.565 71.1004 123.585 36.4885 116.19 14.1622Z" fill="#6DB33F"/>
<path d="M29.0307 103.993C31.2758 105.843 31.6719 109.278 29.823 111.656C27.974 114.034 24.5404 114.298 22.1636 112.448C19.7867 110.599 19.5223 107.165 21.3713 104.786C23.2203 102.408 26.6538 102.144 29.0307 103.993ZM116.191 14.1612C123.585 36.4875 132.566 71.0994 116.455 92.5004C100.739 113.505 66.9323 106.371 45.4061 107.428C45.4061 107.428 41.5764 107.693 37.7467 108.221C37.7467 108.221 39.1996 107.561 41.0485 106.9C56.2355 101.616 63.367 100.559 72.6101 95.8034C89.9105 86.9516 107.211 67.532 110.644 47.4516C104.041 66.7394 83.9683 83.386 65.7439 90.1227C62.482 91.3246 58.541 92.5171 54.496 93.6252L53.5609 93.8795C42.3223 96.9096 30.6152 99.2381 30.6152 99.2381L29.6912 98.7091C14.3725 91.1798 13.8437 57.8885 41.8408 47.188C54.1222 42.4317 65.7439 45.0739 79.0819 41.9037C93.2123 38.6007 109.588 28.0329 116.191 14.1612Z" fill="white"/>
</g>
<defs>
<clipPath id="clip0_7_24">
<rect width="475" height="129" fill="white"/>
</clipPath>
</defs>
</svg>
