<svg width="194" height="274" viewBox="0 0 194 274" fill="none" xmlns="http://www.w3.org/2000/svg">
<g clip-path="url(#clip0_7_12)">
<path d="M96.8818 273.308L17.9314 251.356L0.337219 53.7116H193.663L176.05 251.326L96.8818 273.308Z" fill="#264DE4"/>
<path d="M160.972 238.742L176.022 69.8715H97V256.505L160.972 238.742Z" fill="#2965F1"/>
<path d="M40.6711 143.175L42.8399 167.416H97V143.175H40.6711ZM36.3121 94.1125L38.5121 118.353H97V94.1125H36.3121ZM97 206.13L96.8939 206.158L69.9401 198.869L68.2168 179.536H43.9213L47.3118 217.597L96.8886 231.38L97 231.35V206.13Z" fill="#EBEBEB"/>
<path d="M45.8355 0H75.1477V12.2776H58.0939V24.5553H75.1492V36.8321H45.8355V0ZM81.0109 0H110.324V10.6761H93.2693V12.8112H110.324V37.3665H81.0117V26.1552H98.0662V24.0202H81.0101L81.0109 0ZM116.187 0H145.5V10.6761H128.445V12.8112H145.5V37.3665H116.187V26.1552H133.242V24.0202H116.188L116.187 0Z" fill="black"/>
<path d="M153.174 143.175L157.543 94.1125H96.9167V118.353H131.02L128.818 143.175H96.9167V167.416H126.719L123.909 198.853L96.9159 206.15V231.369L146.532 217.597L146.896 213.501L152.584 149.684L153.174 143.175Z" fill="white"/>
</g>
<defs>
<clipPath id="clip0_7_12">
<rect width="194" height="274" fill="white"/>
</clipPath>
</defs>
</svg>
