<svg width="334" height="228" viewBox="0 0 334 228" fill="none" xmlns="http://www.w3.org/2000/svg">
<g clip-path="url(#clip0_38_2)">
<path d="M99.3585 150.452L109.509 183.435C111.79 190.923 112.741 196.151 112.36 199.131C117.911 184.241 121.79 168.014 123.997 150.452H136.202C130.954 179.044 124.032 199.821 115.44 212.783C108.746 222.771 101.412 227.765 93.4261 227.765C91.2968 227.765 88.6718 227.121 85.5568 225.841V218.949C87.0788 219.173 88.8642 219.292 90.9178 219.292C94.6433 219.292 97.6461 218.258 99.9306 216.194C102.666 213.68 104.035 210.854 104.035 207.721C104.035 205.582 102.967 201.193 100.841 194.553L86.6984 150.452H99.3585ZM21.6728 130.179L40.2646 186.987H40.3794L59.0854 130.179H74.3685C77.715 158.352 79.6916 184.129 80.2983 207.494H67.4132C66.9598 185.653 65.7041 165.114 63.6505 145.876H63.5383L43.9171 207.494H34.1045L14.6021 145.876H14.4873C13.0404 164.352 12.1297 184.89 11.75 207.494H0C0.759328 180.004 2.65961 154.234 5.70083 130.179H21.6728Z" fill="#00758F"/>
<path d="M229.95 129.032C249.949 129.032 259.949 141.828 259.949 167.406C259.949 181.306 256.941 191.805 250.933 198.898C249.85 200.194 248.653 201.314 247.392 202.351L261.545 209.359L261.531 209.358L256.506 218.048L238.075 207.279C235.021 208.185 231.659 208.638 227.996 208.638C218.176 208.638 210.841 205.772 205.992 200.047C200.669 193.714 198.009 183.744 198.009 170.154C198.009 156.333 201.011 145.874 207.021 138.772C212.496 132.275 220.14 129.032 229.95 129.032ZM168.708 129.144C175.856 129.144 182.355 131.059 188.209 134.877L185.236 141.512C180.226 139.38 175.287 138.309 170.417 138.309C166.465 138.309 163.42 139.262 161.297 141.178C159.163 143.078 157.842 145.523 157.842 148.503C157.842 153.083 161.1 157.054 167.115 160.409C169.086 161.488 171.05 162.579 173.007 163.683L173.456 163.936L173.681 164.063L174.13 164.315L174.355 164.442L174.803 164.696C179.357 167.266 183.641 169.72 183.641 169.72C189.656 173.996 192.654 178.555 192.654 186.063C192.654 192.62 190.255 198.003 185.472 202.214C180.686 206.407 174.255 208.51 166.203 208.51C158.672 208.51 151.372 206.09 144.302 201.291L147.61 194.649C153.694 197.703 159.2 199.229 164.144 199.229C168.781 199.229 172.411 198.192 175.036 196.145C177.657 194.082 179.227 191.206 179.227 187.558C179.227 182.968 176.038 179.043 170.189 175.751C168.358 174.738 166.532 173.715 164.712 172.683L164.264 172.429C163.441 171.963 162.612 171.491 161.8 171.029L161.359 170.778C157.409 168.529 153.994 166.563 153.994 166.563C148.147 162.279 145.214 157.683 145.214 150.11C145.214 143.847 147.401 138.785 151.768 134.933C156.145 131.074 161.792 129.144 168.708 129.144ZM283.452 130.179V197.983H307.744V207.494H271.132V130.179L283.452 130.179ZM321.242 198.012V199.62H318.571V207.485H316.53V199.62H313.755V198.012H321.242ZM326.174 198.012L328.738 204.47L331.094 198.012H333.988V207.485H332.064V200.276L329.383 207.485H327.995L325.31 200.276H325.206V207.485H323.386V198.012H326.174ZM228.692 138.54C216.907 138.54 211.011 148.281 211.011 167.749C211.011 178.901 212.573 186.987 215.692 192.028C218.581 196.692 223.105 199.02 229.265 199.02C241.05 199.02 246.945 189.203 246.945 169.58C246.945 158.584 245.383 150.567 242.268 145.524C239.376 140.87 234.854 138.54 228.693 138.54" fill="#F29111"/>
<path d="M197.802 4.79066C201.712 -4.82977 215.382 2.45578 220.687 5.81633C221.987 6.65712 223.478 8.43343 224.969 9.08999C227.294 9.18145 229.618 9.36372 231.947 9.46106C236.317 10.4894 240.409 11.3295 243.853 13.2933C259.853 22.7301 270.269 32.3466 279.855 48.2309C281.904 51.5953 282.927 55.2361 284.601 58.877C286.923 64.3039 289.532 70.0006 292.228 75.1322C293.435 77.5651 294.368 80.2704 296.044 82.325C296.698 83.2645 298.557 83.5415 299.668 84.1026C302.739 85.6947 306.46 86.9033 309.349 88.7717C314.743 92.1401 319.958 96.154 324.699 100.263C326.467 101.849 327.671 104.095 329.355 105.772V106.619C327.86 107.078 326.371 107.549 324.88 107.926C321.624 108.763 318.74 108.574 315.582 109.412C313.63 109.979 311.206 110.727 309.159 110.917L309.349 111.108C310.553 114.554 317.068 117.357 320.048 119.418C323.667 122.034 327.021 125.206 329.721 128.849C330.653 129.779 331.585 130.625 332.513 131.552C333.161 132.492 333.344 133.707 334 134.544V134.828C333.273 134.571 332.751 134.081 332.256 133.569L331.96 133.26C331.665 132.953 331.366 132.651 331.027 132.402C328.973 130.997 326.934 129.317 324.88 128.011C321.35 125.768 317.255 124.466 313.63 122.214C311.58 120.907 309.626 119.418 307.673 117.922C305.902 116.611 303.951 114.093 302.838 112.224C302.183 111.192 302.093 109.979 301.344 109.232C301.477 107.985 302.618 107.615 303.77 107.31L304.035 107.24C304.432 107.137 304.821 107.034 305.16 106.897C309.996 104.841 315.762 104.095 323.208 104.282C322.928 102.409 318.275 100.076 316.79 98.9553C313.809 96.8034 310.652 94.558 307.489 92.5994C305.813 91.5737 302.926 90.8251 301.069 89.9869C298.557 88.9586 292.973 87.931 291.581 85.9724C289.217 82.8849 287.518 79.2023 285.869 75.4824L285.42 74.4672C285.27 74.1288 285.12 73.7907 284.97 73.4526C283.021 68.973 280.599 64.3026 278.645 59.7158C277.624 57.4783 277.155 55.5145 276.036 53.3684C269.247 40.1993 259.199 29.1736 247.016 21.4196C243.013 18.8966 238.549 16.5617 233.621 14.9749C230.829 14.1302 227.477 14.5973 224.501 13.9492H222.543C220.872 13.4775 219.476 11.7032 218.172 10.7677C215.292 8.80908 212.408 7.49399 208.963 6.09659C207.756 5.53607 204.31 4.23078 203.107 5.25842C202.362 5.44591 201.984 5.72748 201.801 6.47616C201.06 7.59329 201.712 9.27618 202.173 10.3064C203.57 13.292 205.522 15.0663 207.294 17.5894C208.87 19.8269 210.828 22.3499 211.945 24.7828C214.356 30.0124 215.479 35.8065 217.713 41.0355C218.542 43.0019 219.852 45.2394 221.058 47.0131C222.081 48.421 223.939 49.4388 224.501 51.221C225.622 53.0894 222.824 59.2546 222.176 61.2125C219.752 68.8737 220.222 79.5231 223.013 86.1638L223.162 86.514L223.31 86.8687C224.329 89.3009 225.42 91.92 228.129 92.6001C228.316 92.4145 228.129 92.5119 228.499 92.4145C229.155 87.2744 229.339 82.3244 231.108 78.3027C232.131 75.7882 234.172 74.0105 235.571 71.9579C236.504 72.5171 236.504 74.2033 237.06 75.3191C238.27 78.2132 239.571 81.3862 241.063 84.2888C244.127 90.2665 247.574 96.0619 251.479 101.291C252.787 103.159 254.643 105.215 256.317 106.897C257.063 107.548 257.898 107.924 258.458 108.763H258.641V109.045C255.85 108.015 254.081 105.123 251.855 103.435C247.664 100.262 242.646 95.4968 239.757 90.9244C238.549 88.2994 237.243 85.7836 235.941 83.1717V82.9829C235.384 83.729 235.571 84.4698 235.292 85.5987C234.084 90.2665 235.015 95.5915 230.829 97.2705C226.083 99.2369 222.544 94.0974 221.058 91.7619C216.312 84.0099 215.012 70.9322 218.359 60.3756C219.103 58.0388 219.204 55.2361 220.502 53.3703C220.221 51.6835 218.923 51.2223 218.172 50.1888C216.87 48.4223 215.755 46.3644 214.736 44.4026C212.778 40.5703 211.384 35.9914 209.897 31.8815C209.244 30.2032 209.057 28.5183 208.405 26.9295C207.293 24.5045 205.244 22.0716 203.664 19.9262C201.523 16.8426 195.289 10.8663 197.802 4.79066ZM228.314 23.0927C228.562 23.3423 228.862 23.5605 229.173 23.7754L229.547 24.0328C230.046 24.3791 230.53 24.7436 230.826 25.2401C231.296 25.8973 231.383 26.546 231.945 27.2046C231.945 29.4499 231.296 30.9427 229.984 31.873C229.984 31.873 229.894 31.971 229.802 32.0625C229.059 30.5658 228.407 29.0769 227.658 27.5815C226.736 26.2762 225.432 25.2408 224.68 23.7493H224.499V23.5618C225.622 23.2841 226.736 23.0927 228.314 23.0927Z" fill="#00758F"/>
</g>
<defs>
<clipPath id="clip0_38_2">
<rect width="334" height="228" fill="white"/>
</clipPath>
</defs>
</svg>
