<svg width="256" height="256" viewBox="0 0 256 256" fill="none" xmlns="http://www.w3.org/2000/svg">
<path d="M48 120C50.1217 120 52.1566 119.157 53.6569 117.657C55.1571 116.157 56 114.122 56 112V40H144V88C144 90.1217 144.843 92.1566 146.343 93.6569C147.843 95.1571 149.878 96 152 96H200V112C200 114.122 200.843 116.157 202.343 117.657C203.843 119.157 205.878 120 208 120C210.122 120 212.157 119.157 213.657 117.657C215.157 116.157 216 114.122 216 112V88C216.001 86.9491 215.795 85.9084 215.393 84.9372C214.992 83.966 214.403 83.0835 213.66 82.34L157.66 26.34C156.917 25.5973 156.034 25.0084 155.063 24.6069C154.092 24.2054 153.051 23.9992 152 24H56C51.7565 24 47.6869 25.6857 44.6863 28.6863C41.6857 31.6869 40 35.7565 40 40V112C40 114.122 40.8429 116.157 42.3431 117.657C43.8434 119.157 45.8783 120 48 120ZM160 51.31L188.69 80H160V51.31ZM228 208C228 210.122 227.157 212.157 225.657 213.657C224.157 215.157 222.122 216 220 216H192C189.878 216 187.843 215.157 186.343 213.657C184.843 212.157 184 210.122 184 208V152C184 149.878 184.843 147.843 186.343 146.343C187.843 144.843 189.878 144 192 144C194.122 144 196.157 144.843 197.657 146.343C199.157 147.843 200 149.878 200 152V200H220C222.122 200 224.157 200.843 225.657 202.343C227.157 203.843 228 205.878 228 208ZM91.82 196.31C91.5082 199.37 90.5224 202.322 88.9334 204.956C87.3444 207.589 85.1916 209.838 82.63 211.54C77.44 215 71 216 65.14 216C60.0293 215.973 54.9424 215.301 50 214C47.9808 213.409 46.2759 212.046 45.2545 210.206C44.2331 208.367 43.9775 206.199 44.5429 204.172C45.1084 202.146 46.4496 200.424 48.2758 199.379C50.102 198.334 52.2663 198.05 54.3 198.59C58.68 199.79 69.25 201.29 73.85 198.23C74.74 197.64 75.68 196.71 75.99 194.3C76.34 191.63 75.28 190.2 63.21 186.71C53.86 184.01 38.21 179.48 40.21 163.6C40.5213 160.6 41.489 157.706 43.0444 155.122C44.5998 152.539 46.7048 150.329 49.21 148.65C61.05 140.65 79.93 145.34 82.04 145.89C83.0564 146.158 84.0101 146.623 84.8467 147.26C85.6832 147.896 86.3862 148.691 86.9155 149.599C87.4448 150.508 87.79 151.511 87.9315 152.553C88.073 153.594 88.0079 154.654 87.74 155.67C87.4721 156.686 87.0066 157.64 86.3702 158.477C85.7337 159.313 84.9387 160.016 84.0305 160.546C83.1224 161.075 82.1188 161.42 81.0773 161.562C80.0357 161.703 78.9764 161.638 77.96 161.37C73.47 160.2 62.74 158.81 58.14 161.93C57.537 162.337 57.0406 162.882 56.6926 163.521C56.3445 164.16 56.155 164.873 56.14 165.6C56.02 166.5 56 166.68 57.26 167.5C59.57 168.99 63.7 170.18 67.71 171.34C77.5 174.17 94.06 179 91.82 196.31ZM162.82 199.54C166.232 193.594 168.018 186.855 168 180C168 160.15 153.65 144 136 144C118.35 144 104 160.15 104 180C104 199.85 118.35 216 136 216C141.651 215.98 147.175 214.319 151.9 211.22L154.34 213.66C155.841 215.16 157.877 216.002 159.999 216.001C162.121 216 164.155 215.156 165.655 213.655C167.155 212.154 167.997 210.118 167.996 207.996C167.995 205.874 167.151 203.84 165.65 202.34L162.82 199.54ZM136 200C127.18 200 120 191 120 180C120 169 127.18 160 136 160C144.82 160 152 169 152 180C152.001 182.55 151.603 185.084 150.82 187.51L149.65 186.34C148.907 185.597 148.024 185.008 147.054 184.607C146.083 184.205 145.042 183.999 143.991 183.999C141.869 184 139.835 184.844 138.335 186.345C136.835 187.846 135.993 189.882 135.994 192.004C135.995 194.126 136.839 196.16 138.34 197.66L140.02 199.33C138.724 199.764 137.367 199.991 136 200Z" fill="black"/>
</svg>
